<svg xmlns="http://www.w3.org/2000/svg" viewBox="0 0 62 53" width="62" height="53">
	<defs>
		<clipPath clipPathUnits="userSpaceOnUse" id="cp1">
			<path d="M-2473 -746L1367 -746L1367 1002L-2473 1002Z" />
		</clipPath>
	</defs>
	<style>
		tspan { white-space:pre }
		.shp0 { fill: #ffffff } 
	</style>
	<g id="Page 1" clip-path="url(#cp1)">
		<path id="Path 117" fill-rule="evenodd" class="shp0" d="M49.1 47.11C45.77 47.11 42.45 47.13 39.13 47.1C38.46 47.09 38.19 47.35 37.97 47.94C36.83 50.91 33.96 52.82 30.79 52.79C27.59 52.77 24.74 50.83 23.66 47.87C23.44 47.26 23.12 47.1 22.52 47.1C15.97 47.12 9.43 47.11 2.88 47.11C2.51 47.11 2.14 47.12 1.77 47.02C0.91 46.79 0.32 46.08 0.27 45.2C0.23 44.33 0.75 43.55 1.58 43.24C2 43.08 2.45 43.07 2.9 43.07C9.34 43.07 15.79 43.06 22.24 43.09C23.05 43.09 23.44 42.86 23.76 42.08C24.95 39.15 27.84 37.34 31.05 37.38C34.03 37.42 36.88 39.41 37.98 42.29C38.21 42.87 38.5 43.09 39.12 43.08C45.56 43.06 52.01 43.07 58.46 43.07C58.93 43.07 59.4 43.06 59.86 43.18C60.79 43.42 61.36 44.12 61.37 45.05C61.39 45.97 60.83 46.72 59.94 47C59.58 47.11 59.21 47.11 58.84 47.11C55.59 47.11 52.34 47.11 49.1 47.11ZM30.86 39.51C27.7 39.49 25.22 41.93 25.21 45.06C25.19 48.2 27.7 50.72 30.86 50.75C33.82 50.78 36.43 48.19 36.44 45.21C36.45 41.98 34.05 39.52 30.86 39.51ZM41.39 10.01C35.61 10.01 29.84 10.02 24.06 9.99C23.33 9.99 22.98 10.2 22.7 10.89C21.5 13.86 18.65 15.72 15.47 15.69C12.4 15.67 9.62 13.76 8.45 10.82C8.21 10.21 7.9 9.98 7.25 9.99C5.72 10.03 4.18 10.01 2.64 10.01C1.98 10.01 1.35 9.88 0.86 9.39C0.27 8.79 0.11 8.06 0.41 7.27C0.75 6.41 1.44 6 2.32 5.98C3.96 5.95 5.6 5.94 7.23 5.98C7.86 5.99 8.2 5.82 8.44 5.18C9.5 2.31 12.38 0.3 15.35 0.29C18.71 0.27 21.53 2.08 22.71 5.1C22.97 5.76 23.28 5.98 23.99 5.98C35.62 5.95 47.25 5.96 58.88 5.97C59.15 5.97 59.42 5.96 59.69 6.01C60.68 6.19 61.35 6.95 61.37 7.9C61.4 8.91 60.78 9.74 59.75 9.91C58.33 10.15 56.88 10 55.45 10C50.76 10.02 46.08 10.01 41.39 10.01L41.39 10.01ZM15.55 13.57C18.69 13.58 21.2 11.12 21.24 8.01C21.28 4.96 18.64 2.32 15.55 2.33C12.52 2.34 10.01 4.85 10 7.87C9.99 11.14 12.35 13.56 15.55 13.57ZM56.76 28.52C55.89 28.52 55.02 28.54 54.16 28.52C53.72 28.5 53.5 28.67 53.33 29.08C52.07 32.28 49.71 34.08 46.28 34.23C43.19 34.37 40.24 32.62 38.97 29.48C38.67 28.74 38.31 28.5 37.52 28.5C26.09 28.53 14.66 28.52 3.23 28.52C2.88 28.52 2.54 28.53 2.19 28.51C1.07 28.45 0.28 27.63 0.28 26.54C0.28 25.46 1.07 24.6 2.19 24.57C3.97 24.54 5.76 24.56 7.54 24.56C17.63 24.56 27.73 24.55 37.82 24.57C38.36 24.57 38.64 24.42 38.85 23.88C40.02 20.81 42.89 18.8 46.05 18.81C49.26 18.81 52.12 20.79 53.3 23.92C53.49 24.44 53.77 24.58 54.28 24.57C55.92 24.54 57.56 24.55 59.19 24.56C60.52 24.57 61.38 25.37 61.38 26.57C61.37 27.71 60.49 28.51 59.21 28.52C58.4 28.53 57.58 28.52 56.76 28.52L56.76 28.52ZM51.66 26.51C51.64 23.32 49.18 20.91 45.95 20.92C42.98 20.93 40.39 23.54 40.41 26.5C40.44 29.66 42.96 32.17 46.09 32.16C49.23 32.14 51.67 29.67 51.66 26.51Z" />
	</g>
</svg>