<?xml version="1.0" encoding="utf-8"?><svg viewBox="0 0 448 512" xmlns="http://www.w3.org/2000/svg" xmlns:xlink="http://www.w3.org/1999/xlink"><style>:root>svg{display:none}:root>svg:target{display:block}</style><svg viewBox="0 0 8 13" id="arr-down" xmlns="http://www.w3.org/2000/svg"><path d="M3.646 12.354a.5.5 0 00.708 0l3.182-3.182a.5.5 0 10-.708-.708L4 11.293 1.172 8.464a.5.5 0 10-.708.708l3.182 3.182zM3.5 0v12h1V0h-1z" fill-opacity=".5"/></svg><svg viewBox="0 0 25 8" id="arr-right" xmlns="http://www.w3.org/2000/svg"><path d="M24.354 4.354a.5.5 0 000-.708L21.172.464a.5.5 0 10-.707.708L23.293 4l-2.828 2.828a.5.5 0 10.707.708l3.182-3.182zM0 4.5h24v-1H0v1z"/></svg><svg viewBox="0 0 24 24" id="characteristics-1" xmlns="http://www.w3.org/2000/svg"><path d="M12 0C5.373 0 0 5.373 0 12s5.373 12 12 12 12-5.373 12-12C23.993 5.376 18.624.007 12 0zm0 23.2C5.814 23.2.8 18.186.8 12 .8 5.814 5.814.8 12 .8 18.186.8 23.2 5.814 23.2 12c-.007 6.183-5.017 11.193-11.2 11.2z"/><path d="M12 10a2.8 2.8 0 100 5.6 2.8 2.8 0 000-5.6zm0 4.8a2 2 0 110-4 2 2 0 010 4z"/><path d="M16.8 8.4h-2.153l-.687-1.379a.4.4 0 00-.36-.221h-3.2a.4.4 0 00-.358.221L9.352 8.4H7.2A1.2 1.2 0 006 9.6V16a1.2 1.2 0 001.2 1.2h9.6A1.2 1.2 0 0018 16V9.6a1.2 1.2 0 00-1.2-1.2zm.4 7.6a.4.4 0 01-.4.4H7.2a.4.4 0 01-.4-.4V9.6c0-.22.18-.4.4-.4h2.4a.4.4 0 00.358-.221l.69-1.379h2.705l.687 1.379a.4.4 0 00.36.221h2.4c.22 0 .4.18.4.4V16z"/></svg><svg viewBox="0 0 25 25" id="characteristics-2" xmlns="http://www.w3.org/2000/svg"><path d="M21.339 3.661A12.418 12.418 0 0012.5 0C9.161 0 6.022 1.3 3.661 3.661A12.418 12.418 0 000 12.5c0 3.339 1.3 6.478 3.661 8.839A12.418 12.418 0 0012.5 25c3.339 0 6.478-1.3 8.839-3.661A12.418 12.418 0 0025 12.5c0-3.339-1.3-6.478-3.661-8.839zM12.5 24.176C6.062 24.176.824 18.938.824 12.5S6.062.824 12.5.824 24.176 6.062 24.176 12.5 18.938 24.176 12.5 24.176z"/><path d="M12.5 2.198C6.82 2.198 2.198 6.819 2.198 12.5c0 5.68 4.621 10.302 10.302 10.302 5.68 0 10.302-4.621 10.302-10.302 0-5.68-4.621-10.302-10.302-10.302zm0 19.78c-5.226 0-9.478-4.252-9.478-9.478S7.274 3.022 12.5 3.022s9.478 4.252 9.478 9.478-4.252 9.478-9.478 9.478z"/><path d="M15.374 4.964a.412.412 0 00-.583 0L4.964 14.79a.412.412 0 10.583.583l9.827-9.828a.412.412 0 000-.582zm2.274 1.806l-6.285 6.284a.412.412 0 10.583.583l6.285-6.285a.412.412 0 10-.583-.583zm-7.528 7.527l-3.35 3.35a.412.412 0 10.582.584l3.35-3.35a.412.412 0 10-.582-.584z"/></svg><svg viewBox="0 0 23 23" id="characteristics-3" xmlns="http://www.w3.org/2000/svg"><path d="M11.5 3.56c-4.378 0-7.94 3.562-7.94 7.94s3.562 7.94 7.94 7.94 7.94-3.562 7.94-7.94-3.562-7.94-7.94-7.94zm2.326 7.818a2.32 2.32 0 00-.579-1.416l5.325-.569a7.371 7.371 0 01-.728 5.872l-4.018-3.887zm-2.326 1.89a1.769 1.769 0 110-3.537 1.769 1.769 0 010 3.538zm6.886-4.42l-5.757.615a2.313 2.313 0 00-1.045-.29l2.76-4.48a7.42 7.42 0 014.042 4.156zm-4.577-4.356l-2.936 4.765a2.34 2.34 0 00-1.454 1.197L7.766 5.138a7.37 7.37 0 016.043-.646zm-6.532.961l1.895 6.093c.003.192.03.382.08.567l-5.116-1.07a7.379 7.379 0 013.14-5.59zm-3.154 6.16l5.409 1.132c.281.443.704.78 1.199.954l-4.59 2.868a7.352 7.352 0 01-2.018-4.953zm2.43 5.357l5.03-3.142a2.32 2.32 0 001.054-.296l-.42 5.312a7.35 7.35 0 01-5.663-1.873zm6.233 1.796l.452-5.717a2.32 2.32 0 00.516-.96l3.778 3.655a7.391 7.391 0 01-4.746 3.022zM1.215 0A1.217 1.217 0 000 1.215v3.89a.28.28 0 10.561 0v-3.89a.655.655 0 01.654-.654H5.43a.28.28 0 100-.561H1.215zM22.72 17.391a.28.28 0 00-.281.28v4.114a.655.655 0 01-.654.654h-3.907a.28.28 0 000 .561h3.907A1.217 1.217 0 0023 21.785v-4.113a.28.28 0 00-.28-.28zM21.785 0h-3.828a.28.28 0 100 .561h3.828a.655.655 0 01.654.654v3.693a.28.28 0 00.561 0V1.215A1.217 1.217 0 0021.785 0zM4.84 22.439H1.214a.655.655 0 01-.654-.654v-3.602a.28.28 0 10-.561 0v3.602A1.217 1.217 0 001.215 23H4.84a.28.28 0 000-.561z"/></svg><svg viewBox="0 0 18 21" id="characteristics-4" xmlns="http://www.w3.org/2000/svg"><path d="M9 21c-4.963 0-9-4.121-9-9.188 0-5.066 4.037-9.187 9-9.187s9 4.121 9 9.188C18 16.878 13.963 21 9 21zM9 3.5C4.51 3.5.857 7.23.857 11.813S4.51 20.124 9 20.124s8.143-3.73 8.143-8.313S13.49 3.5 9 3.5z"/><path d="M12 16.188a.426.426 0 01-.339-.17l-3-3.937a.445.445 0 01-.09-.268v-5.25c0-.242.192-.438.429-.438s.429.196.429.438v5.1l2.91 3.818a.443.443 0 01-.076.615.421.421 0 01-.263.091zM12 .875H6a.433.433 0 01-.429-.438C5.571.197 5.763 0 6 0h6c.237 0 .429.196.429.438A.433.433 0 0112 .875z"/><path d="M9 3.5a.433.433 0 01-.429-.438V.438C8.571.196 8.763 0 9 0s.429.196.429.438v2.624A.433.433 0 019 3.5zm6.06 2.564a.426.426 0 01-.303-.128.444.444 0 010-.619l2.082-2.126a.423.423 0 01.606 0 .444.444 0 010 .619l-2.082 2.126a.423.423 0 01-.303.128z"/></svg><svg viewBox="0 0 26 20" id="characteristics-5" xmlns="http://www.w3.org/2000/svg"><path d="M23.292 20H2.708C1.215 20 0 18.754 0 17.222V2.778C0 1.246 1.216 0 2.708 0h20.584C24.784 0 26 1.246 26 2.778v14.444C26 18.754 24.785 20 23.292 20zM2.708 1.111c-.896 0-1.625.748-1.625 1.667v14.444c0 .92.73 1.667 1.625 1.667h20.584c.896 0 1.625-.748 1.625-1.667V2.778c0-.92-.73-1.667-1.625-1.667H2.708z"/><path d="M20.042 14.444h-2.167c-.896 0-1.625-.747-1.625-1.666V7.222c0-.919.73-1.666 1.625-1.666h2.167c.896 0 1.625.747 1.625 1.666v5.556c0 .919-.73 1.666-1.625 1.666zm-2.167-7.777a.55.55 0 00-.542.555v5.556a.55.55 0 00.542.555h2.167a.55.55 0 00.541-.555V7.222a.55.55 0 00-.541-.555h-2.167zM5.958 14.444a.549.549 0 01-.541-.555V6.11c0-.307.242-.555.541-.555.3 0 .542.248.542.555v7.778a.549.549 0 01-.542.555zm5.688 0H9.208a.549.549 0 01-.541-.555c0-.307.242-.556.541-.556h2.438c.746 0 1.354-.623 1.354-1.389 0-.765-.608-1.388-1.354-1.388h-.542c-1.344 0-2.437-1.123-2.437-2.5 0-1.378 1.093-2.5 2.437-2.5h2.438c.299 0 .541.248.541.555a.549.549 0 01-.541.556h-2.438c-.746 0-1.354.623-1.354 1.389 0 .765.608 1.388 1.354 1.388h.542c1.344 0 2.437 1.123 2.437 2.5 0 1.378-1.093 2.5-2.437 2.5z"/></svg><svg viewBox="0 0 24 6" id="comments_more" xmlns="http://www.w3.org/2000/svg"><path d="M3 0C1.346 0 0 1.346 0 3s1.346 3 3 3 3-1.346 3-3-1.346-3-3-3zm0 5c-1.103 0-2-.897-2-2s.897-2 2-2 2 .897 2 2-.897 2-2 2zm9-5c-1.654 0-3 1.346-3 3s1.346 3 3 3 3-1.346 3-3-1.346-3-3-3zm0 5c-1.103 0-2-.897-2-2s.897-2 2-2 2 .897 2 2-.897 2-2 2zm9-5c-1.654 0-3 1.346-3 3s1.346 3 3 3 3-1.346 3-3-1.346-3-3-3zm0 5c-1.103 0-2-.897-2-2s.897-2 2-2 2 .897 2 2-.897 2-2 2z"/></svg><svg viewBox="0 0 16 20" id="favorites" xmlns="http://www.w3.org/2000/svg"><path d="M1 3a2 2 0 012-2h10a2 2 0 012 2v16l-7-3.5L1 19V3z"/></svg><svg viewBox="0 0 7 17" id="lightning" xmlns="http://www.w3.org/2000/svg"><g clip-path="url(#jclip0)"><path d="M6.332 7.345l-2.054.479L6.16 0 .923 9.816l2.115-.497-1.882 7.859 5.272-9.855-.096.023z"/></g><defs><clipPath id="jclip0"><path d="M0 0h7v17H0z"/></clipPath></defs></svg><svg viewBox="0 0 16 13" id="like-border" xmlns="http://www.w3.org/2000/svg"><path d="M2.025 1.944a3.217 3.217 0 00-.759 1.045 3.001 3.001 0 000 2.466c.176.39.434.746.76 1.045L8 12l5.975-5.5C14.63 5.896 15 5.076 15 4.222c0-.855-.369-1.674-1.025-2.278A3.66 3.66 0 0011.5 1a3.66 3.66 0 00-2.475.944L8 2.887l-1.025-.943a3.51 3.51 0 00-1.136-.699 3.764 3.764 0 00-2.678 0c-.425.162-.81.4-1.136.699z"/></svg><svg viewBox="0 0 45 29" id="logo" xmlns="http://www.w3.org/2000/svg"><path d="M6.786 10.838C6.786.586 6.827.377 9.654.377h1.164c.332 0 .332-.377 0-.377-1.247 0-4.49.084-5.113.084C5.04.084 1.008 0 .634 0 .3 0 .3.377.634.377c2.66 0 2.743 0 2.743 3.808 0 2.301.125 6.444.125 8.37 0 1.882.166 7.74-.042 10.586-.332 5.273-.706 5.566-3.117 5.566-.457 0-.457.293 0 .293l5.86-.125c1.372.041 2.744.041 4.074.083 2.203 0 4.822.042 6.277.042 2.91 0 5.362-.084 5.528-.251.333-.21.582-2.72 1.372-9.709L45 15.483c.041-.293-8.957-15.357 0 0l-18.58 3.474c-.54 4.226-7.206 9.583-12.028 9.583-1.33 0-6.692-.126-7.939-.126.166-.711.333-2.93.333-6.151V10.838z"/><path d="M33.508 3.39c.831-2.01 1.558-3.097 2.535-3.076.146 0 .146-.188 0-.188-.145 0-1.475.041-1.766.041-.291 0-1.31-.02-1.85-.02-.166 0-.166.188 0 .188 1.33-.021 1.725.837.894 2.93L30.91 9.06l-2.89-6.696c-.79-1.8-.686-2.05.52-2.05.166 0 .166-.168 0-.168-.52 0-1.85.021-2.12.021-.291 0-1.912-.041-2.079-.041-.145 0-.145.188 0 .188.873 0 1.289.25 2.307 2.636l3.326 7.68c.02.02.041.041.083.041h.332c.042 0 .063-.02.083-.042l3.035-7.24z"/></svg><svg viewBox="0 0 31 32" id="logo-footer" xmlns="http://www.w3.org/2000/svg"><path d="M7.389 11.96C7.389.646 7.434.416 10.512.416h1.267c.362 0 .362-.416 0-.416-1.358 0-4.888.092-5.567.092C5.488.092 1.098 0 .69 0 .328 0 .328.416.69.416c2.897 0 2.987 0 2.987 4.202 0 2.54.136 7.11.136 9.235 0 2.078.181 8.542-.045 11.682-.362 5.819-.77 6.142-3.395 6.142-.497 0-.497.323 0 .323l6.382-.139c1.494.047 2.987.047 4.436.093 2.399 0 5.25.046 6.834.046 3.169 0 5.839-.092 6.02-.277.362-.23.634-3.002 1.494-10.713H22c.475 4.99-1.078 10.482-6.328 10.482-1.449 0-7.287-.139-8.645-.139.18-.785.362-3.232.362-6.787V11.96z"/><path d="M27.51 10.602c.905-2.217 1.697-3.417 2.761-3.394.158 0 .158-.208 0-.208-.159 0-1.607.046-1.924.046-.317 0-1.425-.023-2.014-.023-.18 0-.18.208 0 .208 1.449-.023 1.879.923.973 3.232l-2.625 6.396-3.146-7.389c-.86-1.985-.746-2.262.566-2.262.181 0 .181-.185 0-.185-.566 0-2.014.023-2.308.023-.317 0-2.082-.046-2.263-.046-.159 0-.159.208 0 .208.95 0 1.403.277 2.512 2.909l3.62 8.473c.023.023.046.046.091.046h.362c.046 0 .068-.023.091-.046l3.304-7.988z"/></svg><svg viewBox="0 0 17 17" id="notifications" xmlns="http://www.w3.org/2000/svg"><path d="M8.5 0C7.117 0 5.991 1.015 5.991 2.261v.683H7.29V2.26c0-.602.543-1.091 1.211-1.091s1.211.49 1.211 1.091v.683h1.298V2.26C11.01 1.015 9.883 0 8.5 0zm1.774 14.25c0 .872-.786 1.58-1.752 1.58h-.044c-.966 0-1.752-.708-1.752-1.58H5.43c0 1.517 1.368 2.75 3.05 2.75h.043c1.681 0 3.05-1.233 3.05-2.75h-1.298z"/><path d="M16.897 14.032l-1.843-2.585V8.13c0-3.29-2.94-5.966-6.554-5.966-3.614 0-6.553 2.676-6.553 5.966v3.317L.103 14.032a.536.536 0 00-.024.597.663.663 0 00.57.305H16.35a.663.663 0 00.57-.305.535.535 0 00-.024-.597zm-15.06-.268l1.304-1.829a.544.544 0 00.103-.316V8.13c0-2.644 2.358-4.795 5.256-4.795s5.256 2.151 5.256 4.796v3.49c0 .111.035.221.103.316l1.303 1.828H1.838z"/></svg><svg viewBox="0 0 15 15" id="search" xmlns="http://www.w3.org/2000/svg"><path d="M6.606 0A6.613 6.613 0 000 6.606a6.613 6.613 0 006.606 6.605 6.613 6.613 0 006.605-6.605A6.613 6.613 0 006.606 0zm0 11.992A5.392 5.392 0 011.22 6.606 5.392 5.392 0 016.606 1.22a5.392 5.392 0 015.386 5.386 5.392 5.392 0 01-5.386 5.386z"/><path d="M14.822 13.96l-3.496-3.496a.61.61 0 10-.862.862l3.496 3.496a.607.607 0 00.862 0 .61.61 0 000-.862z"/></svg><svg viewBox="0 0 16 16" id="send" xmlns="http://www.w3.org/2000/svg"><path d="M15.447 8.894a1 1 0 000-1.788l-14-7A1 1 0 00.038 1.275l1.43 5a1 1 0 00.96.725H7a1 1 0 010 2H2.43a1 1 0 00-.963.725l-1.428 5a1 1 0 001.408 1.17l14-7v-.001z"/></svg><svg viewBox="0 0 15 15" id="socials-instagram" xmlns="http://www.w3.org/2000/svg"><path d="M14.139 4.803c-.031-.705-.145-1.19-.309-1.61a3.24 3.24 0 00-.768-1.178 3.268 3.268 0 00-1.175-.765c-.422-.164-.905-.278-1.61-.309C9.566.907 9.34.899 7.537.899 5.736.9 5.51.907 4.802.94c-.705.03-1.19.145-1.61.308a3.24 3.24 0 00-1.178.768c-.337.332-.6.734-.765 1.175-.164.423-.278.905-.31 1.61-.033.711-.04.937-.04 2.74 0 1.802.007 2.028.038 2.736.031.705.146 1.19.309 1.61.169.447.43.846.768 1.178.332.337.734.6 1.175.765.423.164.905.278 1.61.309.709.031.934.039 2.737.039s2.028-.008 2.736-.04c.706-.03 1.191-.144 1.611-.308a3.396 3.396 0 001.943-1.942c.163-.423.278-.906.309-1.611.03-.708.039-.934.039-2.737 0-1.802-.003-2.028-.034-2.736zm-1.196 5.421c-.028.648-.137.999-.228 1.232a2.202 2.202 0 01-1.26 1.26c-.234.091-.587.2-1.233.229-.7.031-.91.039-2.682.039-1.771 0-1.984-.008-2.682-.04-.648-.028-.998-.137-1.232-.227a2.044 2.044 0 01-.762-.496 2.065 2.065 0 01-.496-.762c-.09-.234-.2-.587-.228-1.232-.031-.7-.039-.91-.039-2.682 0-1.772.008-1.985.039-2.682.028-.649.137-.999.228-1.232.106-.288.275-.55.498-.763.215-.22.475-.389.763-.495.233-.091.586-.2 1.232-.229.7-.03.91-.038 2.682-.038 1.774 0 1.984.007 2.682.038.648.029.998.138 1.232.229.288.106.55.275.762.495.22.215.39.475.496.763.09.233.2.586.228 1.232.031.7.039.91.039 2.682 0 1.771-.008 1.979-.039 2.679z"/><path d="M7.538 4.129a3.412 3.412 0 10.002 6.823 3.412 3.412 0 00-.002-6.823zm0 5.623a2.213 2.213 0 110-4.426 2.213 2.213 0 010 4.426zm4.34-5.758a.796.796 0 11-1.593 0 .796.796 0 011.593 0z"/></svg><svg viewBox="0 0 14 11" id="socials-twitter" xmlns="http://www.w3.org/2000/svg"><path d="M13.518 1.327a5.479 5.479 0 01-1.496.403A2.549 2.549 0 0013.164.318a5.236 5.236 0 01-1.646.619 2.62 2.62 0 00-1.895-.81c-1.437 0-2.593 1.15-2.593 2.557 0 .203.017.397.06.583A7.383 7.383 0 011.74.594a2.54 2.54 0 00-.355 1.292c0 .885.463 1.67 1.153 2.123a2.593 2.593 0 01-1.173-.315v.029c0 1.241.9 2.273 2.08 2.51a2.628 2.628 0 01-.681.085c-.166 0-.334-.01-.491-.044a2.615 2.615 0 002.424 1.78 5.266 5.266 0 01-3.217 1.09c-.213 0-.417-.01-.621-.035a7.388 7.388 0 003.98 1.147c4.776 0 7.386-3.896 7.386-7.272 0-.113-.004-.222-.009-.33.515-.36.948-.81 1.3-1.327z"/></svg><svg viewBox="0 0 14 8" id="socials-vk" xmlns="http://www.w3.org/2000/svg"><path fill-rule="evenodd" clip-rule="evenodd" d="M11.567 4.949c.41.4.842.776 1.21 1.217.162.195.316.397.434.625.166.322.015.678-.274.697h-1.8c-.464.038-.834-.15-1.145-.467-.25-.253-.48-.523-.72-.786a1.703 1.703 0 00-.323-.288c-.246-.16-.46-.11-.6.146-.142.26-.175.55-.189.84-.02.423-.147.535-.573.554-.91.043-1.773-.095-2.574-.554-.707-.404-1.256-.975-1.733-1.622C2.351 4.052 1.64 2.67 1 1.246.856.926.961.754 1.315.748c.587-.011 1.174-.01 1.762 0 .238.003.396.14.488.365.318.78.706 1.524 1.194 2.213.13.183.262.366.451.495.209.143.368.096.466-.136.062-.148.09-.307.103-.465a6.912 6.912 0 00-.029-1.626c-.05-.338-.24-.557-.577-.62C5.001.94 5.027.876 5.11.778c.145-.17.28-.275.552-.275h2.033c.32.063.391.207.435.53l.002 2.258c-.003.125.062.495.287.578.18.058.298-.085.406-.2.487-.516.834-1.127 1.145-1.76.138-.278.256-.566.37-.855.086-.214.22-.32.46-.315l1.958.002c.058 0 .117 0 .173.01.33.057.42.199.318.52-.16.506-.473.927-.778 1.35-.326.452-.676.888-1 1.342-.297.415-.273.624.096.985z"/></svg><svg viewBox="0 0 15 10" id="socials-youtube" xmlns="http://www.w3.org/2000/svg"><path d="M14.064 1.054c-.38-.626-.793-.741-1.633-.785C11.592.216 9.482.194 7.654.194c-1.832 0-3.943.022-4.78.074-.839.045-1.252.16-1.636.786-.392.625-.593 1.702-.593 3.598v.006c0 1.888.201 2.973.593 3.592.384.626.796.74 1.634.792.84.045 2.95.072 4.782.072 1.828 0 3.938-.027 4.778-.071.84-.053 1.253-.166 1.633-.792.395-.62.595-1.704.595-3.592v-.006c0-1.897-.2-2.974-.596-3.6zM5.9 7.087V2.222l4.38 2.432L5.9 7.087z"/></svg><svg viewBox="0 0 18 31" id="sticker_mark" xmlns="http://www.w3.org/2000/svg"><path d="M0 0h17.88v.851H0V0z"/><path d="M0 .851C0 .381.381 0 .851 0h16.177c.47 0 .851.381.851.851v29.297a.851.851 0 01-1.22.767l-7.35-3.532a.851.851 0 00-.738 0l-7.35 3.532A.851.851 0 010 30.148V.85z"/></svg><svg viewBox="0 0 448 512" id="user" xmlns="http://www.w3.org/2000/svg"><path d="M313.6 288c-28.7 0-42.5 16-89.6 16-47.1 0-60.8-16-89.6-16C60.2 288 0 348.2 0 422.4V464c0 26.5 21.5 48 48 48h352c26.5 0 48-21.5 48-48v-41.6c0-74.2-60.2-134.4-134.4-134.4zM416 464c0 8.8-7.2 16-16 16H48c-8.8 0-16-7.2-16-16v-41.6C32 365.9 77.9 320 134.4 320c19.6 0 39.1 16 89.6 16 50.4 0 70-16 89.6-16 56.5 0 102.4 45.9 102.4 102.4V464zM224 256c70.7 0 128-57.3 128-128S294.7 0 224 0 96 57.3 96 128s57.3 128 128 128zm0-224c52.9 0 96 43.1 96 96s-43.1 96-96 96-96-43.1-96-96 43.1-96 96-96z"/></svg></svg>