<?xml version="1.0" encoding="utf-8"?>
<!-- Generator: Adobe Illustrator 19.0.0, SVG Export Plug-In . SVG Version: 6.00 Build 0)  -->
<svg version="1.1" id="Layer_1" xmlns="http://www.w3.org/2000/svg" xmlns:xlink="http://www.w3.org/1999/xlink" x="0px" y="0px"
	 viewBox="0 0 28.6 33.3" style="enable-background:new 0 0 28.6 33.3;" xml:space="preserve">
<style type="text/css">
	.st0{fill:#F92A65;}
</style>
<g id="XMLID_1527_">
	<g id="XMLID_118_">
		<path id="XMLID_124_" class="st0" d="M6.4,33.3c-0.2-0.1-0.4-0.1-0.5-0.2c-0.8-0.4-1.2-1-1.2-1.8c0-1.1,0-2.3,0-3.5
			c0-0.2,0.1-0.3,0.3-0.3c0.3,0,0.7,0,1,0c0.2,0,0.3,0.1,0.3,0.3c0,1.1,0,2.1,0,3.2c0,0.5,0.2,0.7,0.7,0.7c6.5,0,13,0,19.5,0
			c0.5,0,0.7-0.2,0.7-0.7c0-7.4,0-14.9,0-22.3c0-0.4,0-0.4-0.4-0.4c-1.3,0-2.6,0-4,0c-1.4,0-2.4-0.9-2.4-2.4c0-1.3,0-2.7,0-4
			c0-0.3-0.1-0.4-0.4-0.4c-4.3,0-8.7,0-13,0c-0.5,0-0.7,0.2-0.7,0.7c0,3.8,0,7.6,0,11.5c0,0.3-0.1,0.4-0.4,0.4c-0.3,0-0.6,0-0.9,0
			c-0.2,0-0.3-0.1-0.3-0.3c0-1.3,0-2.6,0-3.9c0-2.5,0-5.1,0-7.6C4.7,0.9,5.6,0,6.9,0c4.5,0,9,0,13.6,0c0.2,0,0.4,0.1,0.5,0.2
			c2.5,2.5,4.9,4.9,7.4,7.4c0.2,0.2,0.2,0.3,0.2,0.5c0,7.5,0,15.1,0,22.6c0,1.5-0.3,2-1.8,2.6C20.1,33.3,13.3,33.3,6.4,33.3z"/>
		<path id="XMLID_119_" class="st0" d="M12,16.2c3.4,0,6.8,0,10.2,0c1.1,0,1.7,0.6,1.7,1.7c0,2,0,4,0,6c0,1-0.7,1.7-1.7,1.7
			c-6.9,0-13.7,0-20.6,0c-1.1,0-1.7-0.6-1.7-1.7c0-2,0-4,0-6c0-1,0.7-1.6,1.7-1.6C5.1,16.1,8.6,16.2,12,16.2z M12.2,23.4
			c0.4,0,0.8-0.1,1.2-0.3c0.5-0.3,0.7-0.8,0.7-1.3c0-0.5-0.3-0.9-0.8-1.1c-0.2-0.1-0.5-0.2-0.8-0.3c-0.3-0.1-0.6-0.1-0.8-0.2
			c-0.2-0.1-0.4-0.2-0.4-0.5c0-0.3,0.2-0.4,0.5-0.5c0.7-0.2,1.1,0.1,1.3,0.6c0.1,0.2,0.3,0.4,0.6,0.3c0.2-0.1,0.3-0.3,0.3-0.6
			c-0.1-0.4-0.3-0.7-0.7-0.8c-0.7-0.3-1.4-0.3-2.1,0c-0.5,0.2-0.7,0.6-0.7,1.1c0,0.5,0.2,0.9,0.7,1.1c0.3,0.2,0.6,0.2,0.9,0.3
			c0.3,0.1,0.6,0.1,0.8,0.3c0.4,0.2,0.4,0.7,0.1,1c-0.5,0.4-1.4,0.3-1.7-0.3c-0.1-0.1-0.1-0.3-0.2-0.4c-0.1-0.2-0.3-0.2-0.5-0.2
			c-0.2,0.1-0.3,0.2-0.3,0.4c0,0.2,0.1,0.4,0.2,0.6C10.9,23.2,11.5,23.4,12.2,23.4z M6.2,20.9c0-0.1,0-0.3,0-0.5
			c0.1-0.9,0.8-1.4,1.6-1.2c0.4,0.1,0.6,0.4,0.8,0.8c0.1,0.2,0.3,0.4,0.6,0.2c0.3-0.1,0.3-0.3,0.2-0.6c-0.1-0.4-0.3-0.6-0.6-0.8
			c-1.4-1-3.4-0.2-3.7,1.5c-0.3,2,0.8,3.2,2.6,3.1c0.8-0.1,1.6-0.7,1.7-1.5c0-0.2-0.1-0.4-0.3-0.5c-0.2-0.1-0.4,0-0.5,0.3
			c0,0.1,0,0.1-0.1,0.2c-0.2,0.6-0.6,0.8-1.2,0.8c-0.5,0-0.9-0.3-1.1-0.9C6.2,21.4,6.2,21.2,6.2,20.9z M16.8,22.2
			c-0.1-0.3-0.2-0.6-0.3-0.8c-0.3-0.8-0.5-1.6-0.8-2.4c0-0.1-0.1-0.3-0.2-0.4c-0.1-0.2-0.3-0.3-0.5-0.2c-0.2,0.1-0.4,0.2-0.3,0.5
			c0,0.2,0.1,0.5,0.2,0.7c0.4,1.1,0.8,2.2,1.2,3.2c0.1,0.3,0.3,0.6,0.7,0.6c0.4,0,0.6-0.1,0.8-0.6c0.4-1,0.8-2,1.1-3
			c0.1-0.3,0.2-0.5,0.3-0.8c0.1-0.3,0-0.4-0.3-0.5c-0.3-0.1-0.5,0-0.6,0.2c-0.1,0.1-0.1,0.3-0.2,0.4C17.5,20.1,17.1,21.1,16.8,22.2z
			"/>
	</g>
</g>
</svg>
