<?xml version="1.0" encoding="utf-8"?>
<!-- Generator: Adobe Illustrator 19.0.0, SVG Export Plug-In . SVG Version: 6.00 Build 0)  -->
<svg version="1.1" id="Layer_1" xmlns="http://www.w3.org/2000/svg" xmlns:xlink="http://www.w3.org/1999/xlink" x="0px" y="0px"
	 viewBox="0 0 25.9 32" style="enable-background:new 0 0 25.9 32;" xml:space="preserve">
<style type="text/css">
	.st0{fill:#F92A65;}
</style>
<g id="XMLID_1528_">
	<g id="XMLID_171_">
		<path id="XMLID_175_" class="st0" d="M13.7,0c0.8,0.2,1.5,0.5,2.1,1c0.8,0.7,1.3,1.5,1.5,2.5c0.1,0.3,0.2,0.4,0.4,0.4
			c1.5,0,3,0,4.5,0c1.9,0,3.4,1.2,3.7,3.1c0.3,1.7-0.5,3.3-2,4c-0.3,0.1-0.3,0.3-0.3,0.5c0,5.5,0,11.1,0,16.6c0,1.3-0.4,2.4-1.5,3.2
			c-0.6,0.5-1.3,0.7-2.1,0.7c-4.7,0-9.5,0-14.2,0c-1.9,0-3.5-1.6-3.6-3.5c0-5.6,0-11.3,0-16.9c0-0.3-0.1-0.5-0.4-0.7
			C0.7,10.2,0.1,9.1,0,7.7c-0.1-2,1.3-3.4,2.9-3.8c0.3-0.1,0.6-0.1,0.9-0.1c1.5,0,3,0,4.5,0c0.2,0,0.3-0.1,0.4-0.3
			c0.4-1.9,1.6-3,3.4-3.5c0.1,0,0.1,0,0.1,0C12.7,0,13.2,0,13.7,0z M13,11.4c-2.8,0-5.6,0-8.4,0c-0.4,0-0.4,0-0.4,0.4
			c0,5.4,0,10.9,0,16.3c0,1.3,0.8,2.1,2.1,2.1c4.5,0,9,0,13.5,0c1.3,0,2.1-0.8,2.1-2.1c0-5.4,0-10.9,0-16.3c0-0.4,0-0.4-0.4-0.4
			C18.6,11.4,15.8,11.4,13,11.4z M13,9.6c3.1,0,6.1,0,9.2,0c1,0,1.8-0.6,1.9-1.6c0.2-1.1-0.5-2.2-1.6-2.3c-0.3,0-0.7-0.1-1-0.1
			c-5.6,0-11.3,0-16.9,0c-0.4,0-0.7,0-1.1,0C2.9,5.7,2.4,6,2.1,6.5C1.7,7.2,1.7,7.9,2,8.6c0.4,0.7,1,1,1.7,1C6.8,9.6,9.9,9.6,13,9.6
			z M13,3.8c0.7,0,1.5,0,2.2,0c0.3,0,0.3-0.1,0.2-0.3C15,2.5,14,1.8,13,1.8c-1.1,0-2.1,0.7-2.4,1.7c-0.1,0.3-0.1,0.3,0.3,0.3
			C11.5,3.8,12.3,3.8,13,3.8z"/>
		<path id="XMLID_174_" class="st0" d="M9.2,22.3c0,1.5,0,3.1,0,4.6c0,0.1,0,0.3,0,0.4c-0.1,0.4-0.5,0.7-0.9,0.7
			c-0.4,0-0.8-0.3-0.9-0.8c0-0.2,0-0.3,0-0.5c0-3,0-6,0-9.1c0-0.2,0-0.4,0-0.5c0.1-0.4,0.4-0.7,0.8-0.7c0.4,0,0.8,0.2,0.9,0.6
			c0.1,0.2,0.1,0.3,0.1,0.5C9.2,19.2,9.2,20.8,9.2,22.3z"/>
		<path id="XMLID_173_" class="st0" d="M16.7,22.3c0-1.6,0-3.2,0-4.7c0-0.7,0.4-1.1,1-1c0.4,0,0.7,0.3,0.8,0.7c0,0.2,0,0.4,0,0.6
			c0,3,0,6,0,9c0,0.2,0,0.4,0,0.6c-0.1,0.4-0.4,0.7-0.8,0.7c-0.4,0-0.8-0.2-0.9-0.6c-0.1-0.2-0.1-0.3-0.1-0.5
			C16.7,25.4,16.7,23.9,16.7,22.3z"/>
		<path id="XMLID_172_" class="st0" d="M13.9,22.3c0,1.6,0,3.2,0,4.8c0,0.4-0.2,0.8-0.6,0.9c-0.4,0.1-0.8,0-1-0.3
			c-0.1-0.2-0.2-0.4-0.2-0.6c0-3.2,0-6.5,0-9.7c0-0.6,0.4-0.9,0.9-0.9c0.5,0,0.9,0.4,0.9,0.9C13.9,19.1,13.9,20.7,13.9,22.3z"/>
	</g>
</g>
</svg>
