<svg xmlns="http://www.w3.org/2000/svg" viewBox="0 0 49 44" width="49" height="44">
	<defs>
		<clipPath clipPathUnits="userSpaceOnUse" id="cp1">
			<path d="M-1177 -1125L2663 -1125L2663 2344L-1177 2344Z" />
		</clipPath>
	</defs>
	<style>
		tspan { white-space:pre }
		.shp0 { fill: #414042 } 
	</style>
	<g id="Page 1" clip-path="url(#cp1)">
		<path id="Path 44" class="shp0" d="M0.39 8.81C1.25 6.58 2.93 5.72 5.24 5.73C12.25 5.76 19.26 5.74 26.26 5.74C26.57 5.74 26.87 5.74 27.18 5.77C27.56 5.8 27.91 5.93 28.05 6.35C28.16 6.72 27.99 7 27.74 7.25C26.95 8.05 26.16 8.83 25.37 9.63C24.91 10.1 24.33 10.04 23.75 10.04C17.8 10.04 11.84 10.04 5.88 10.04C4.53 10.04 4.52 10.05 4.52 11.39C4.52 20.32 4.54 29.26 4.5 38.2C4.5 39.19 4.81 39.44 5.77 39.44C14.74 39.41 23.71 39.41 32.68 39.44C33.62 39.44 33.91 39.17 33.89 38.23C33.84 35.73 33.89 33.22 33.86 30.72C33.86 29.99 34.04 29.41 34.59 28.92C35.27 28.3 35.89 27.63 36.54 26.99C36.83 26.69 37.14 26.41 37.61 26.62C38.01 26.81 38.06 27.18 38.06 27.56C38.06 31.69 38.11 35.83 38.03 39.95C38 41.8 36.67 42.8 35.15 43.56C23.82 43.56 12.49 43.55 1.16 43.57C0.52 43.57 0.38 43.43 0.38 42.8C0.4 31.46 0.39 20.14 0.39 8.81Z" />
		<path id="Path 45" fill-rule="evenodd" class="shp0" d="M48.76 10.23C48.37 11.42 47.64 12.36 46.76 13.24C39.87 20.1 33 26.97 26.15 33.87C25.5 34.52 24.81 34.8 23.92 34.88C21.83 35.04 19.75 35.36 17.66 35.48C15.12 35.62 13.55 33.97 13.78 31.43C13.99 29.11 14.3 26.8 14.55 24.47C14.61 23.99 14.88 23.68 15.19 23.36C22.31 16.25 29.42 9.13 36.52 2.01C37.24 1.3 38.1 0.86 39.01 0.47L41.45 0.47C44.6 2.19 47.03 4.64 48.76 7.79L48.76 10.23ZM18.9 31.14C20.36 30.98 21.57 30.82 22.78 30.71C23.22 30.67 23.53 30.48 23.83 30.18C28.63 25.37 33.43 20.56 38.25 15.76C38.77 15.25 38.72 14.91 38.22 14.44C37.05 13.32 35.9 12.17 34.78 11C34.33 10.54 34.02 10.49 33.54 10.97C28.75 15.79 23.93 20.6 19.13 25.4C18.8 25.73 18.61 26.1 18.56 26.56C18.43 27.73 18.31 28.91 18.15 30.08C18.05 30.87 18.3 31.27 18.9 31.14ZM41.85 11.98C42.02 11.88 42.18 11.81 42.29 11.7C42.97 11.03 43.64 10.36 44.3 9.69C44.75 9.23 44.66 8.77 44.25 8.35C43.16 7.24 42.05 6.15 40.95 5.04C40.44 4.53 39.95 4.57 39.46 5.07C38.87 5.67 38.28 6.28 37.66 6.86C37.22 7.26 37.3 7.56 37.69 7.95C38.9 9.13 40.08 10.34 41.28 11.53C41.45 11.69 41.64 11.82 41.85 11.98Z" />
	</g>
</svg>