<?xml version="1.0" encoding="utf-8"?>
<!-- Generator: Adobe Illustrator 19.0.0, SVG Export Plug-In . SVG Version: 6.00 Build 0)  -->
<svg version="1.1" id="Layer_1" xmlns="http://www.w3.org/2000/svg" xmlns:xlink="http://www.w3.org/1999/xlink" x="0px" y="0px"
	 viewBox="0 0 24.2 21.6" style="enable-background:new 0 0 24.2 21.6;" xml:space="preserve">
<style type="text/css">
	.st0{fill:#414042;}
</style>
<g id="XMLID_1526_">
	<g id="XMLID_85_">
		<path id="XMLID_90_" class="st0" d="M0,4.2c0.4-1.1,1.3-1.5,2.4-1.5c3.5,0,7,0,10.5,0c0.2,0,0.3,0,0.5,0c0.2,0,0.4,0.1,0.4,0.3
			c0.1,0.2,0,0.3-0.2,0.5c-0.4,0.4-0.8,0.8-1.2,1.2c-0.2,0.2-0.5,0.2-0.8,0.2c-3,0-6,0-8.9,0c-0.7,0-0.7,0-0.7,0.7
			c0,4.5,0,8.9,0,13.4c0,0.5,0.2,0.6,0.6,0.6c4.5,0,9,0,13.5,0c0.5,0,0.6-0.1,0.6-0.6c0-1.3,0-2.5,0-3.8c0-0.4,0.1-0.7,0.4-0.9
			c0.3-0.3,0.6-0.6,1-1c0.1-0.1,0.3-0.3,0.5-0.2c0.2,0.1,0.2,0.3,0.2,0.5c0,2.1,0,4.1,0,6.2c0,0.9-0.7,1.4-1.4,1.8
			c-5.7,0-11.3,0-17,0c-0.3,0-0.4-0.1-0.4-0.4C0,15.5,0,9.8,0,4.2z"/>
		<path id="XMLID_86_" class="st0" d="M24.2,4.9c-0.2,0.6-0.6,1.1-1,1.5c-3.4,3.4-6.9,6.9-10.3,10.3c-0.3,0.3-0.7,0.5-1.1,0.5
			c-1,0.1-2.1,0.2-3.1,0.3c-1.3,0.1-2.1-0.8-1.9-2C6.8,14.3,7,13.2,7.1,12c0-0.2,0.2-0.4,0.3-0.6C11,7.9,14.5,4.3,18.1,0.8
			c0.4-0.4,0.8-0.6,1.2-0.8c0.4,0,0.8,0,1.2,0c1.6,0.9,2.8,2.1,3.7,3.7C24.2,4.1,24.2,4.5,24.2,4.9z M9.3,15.3
			c0.7-0.1,1.3-0.2,1.9-0.2c0.2,0,0.4-0.1,0.5-0.3c2.4-2.4,4.8-4.8,7.2-7.2c0.3-0.3,0.2-0.4,0-0.7c-0.6-0.6-1.2-1.1-1.7-1.7
			C17,5,16.8,5,16.6,5.3c-2.4,2.4-4.8,4.8-7.2,7.2c-0.2,0.2-0.3,0.3-0.3,0.6C9,13.6,9,14.2,8.9,14.8C8.8,15.2,9,15.4,9.3,15.3z
			 M20.7,5.8c0.1-0.1,0.2-0.1,0.2-0.1c0.3-0.3,0.7-0.7,1-1c0.2-0.2,0.2-0.5,0-0.7c-0.5-0.6-1.1-1.1-1.6-1.7C20,2,19.8,2,19.5,2.3
			c-0.3,0.3-0.6,0.6-0.9,0.9c-0.2,0.2-0.2,0.4,0,0.5c0.6,0.6,1.2,1.2,1.8,1.8C20.5,5.6,20.6,5.7,20.7,5.8z"/>
	</g>
</g>
</svg>
