<svg xmlns="http://www.w3.org/2000/svg" viewBox="0 0 32 23" width="32" height="23">
	<defs>
		<clipPath clipPathUnits="userSpaceOnUse" id="cp1">
			<path d="M-830 -1624L3010 -1624L3010 2800L-830 2800Z" />
		</clipPath>
	</defs>
	<style>
		tspan { white-space:pre }
		.shp0 { fill: #a9aeb4 } 
	</style>
	<g id="Page 1" clip-path="url(#cp1)">
		<path id="Path 60" class="shp0" d="M8.92 10.79C11.41 12.68 13.75 14.46 16.2 16.32C18.57 14.51 20.93 12.71 23.34 10.87C23.62 11.12 23.86 11.32 24.09 11.54C26.07 13.49 27.96 15.52 30.04 17.35C31.27 18.42 31.57 19.6 31.44 21.09C31.36 22 30.9 22.4 30.08 22.5C29.79 22.53 29.49 22.51 29.2 22.51C20.52 22.53 11.83 22.54 3.15 22.55C1.29 22.55 1.04 22.23 0.95 20.42C0.89 19.3 1.24 18.53 2.04 17.75C4.37 15.5 6.6 13.15 8.92 10.79ZM31.34 15.73C29.21 13.53 27.25 11.49 25.24 9.42C27.19 7.92 29.2 6.38 31.34 4.74L31.34 15.73ZM7.24 9.51C5.24 11.54 3.35 13.46 1.46 15.37C1.37 15.46 1.25 15.54 1.04 15.7L1.04 4.79C3.15 6.4 5.18 7.95 7.24 9.51ZM30.51 0.68C30.13 0.57 29.71 0.59 29.32 0.59C20.53 0.6 11.74 0.61 2.96 0.63C2.63 0.63 2.24 0.55 1.99 0.69C1.61 0.9 1.17 1.23 1.04 1.61C0.93 1.91 1.13 2.51 1.39 2.71C6.29 6.5 11.23 10.24 16.2 14.03C21.17 10.22 26.12 6.44 31.05 2.63C31.75 2.09 31.42 0.94 30.51 0.68Z" />
	</g>
</svg>