<?xml version="1.0" encoding="utf-8"?>
<!-- Generator: Adobe Illustrator 19.0.0, SVG Export Plug-In . SVG Version: 6.00 Build 0)  -->
<svg version="1.1" id="Layer_1" xmlns="http://www.w3.org/2000/svg" xmlns:xlink="http://www.w3.org/1999/xlink" x="0px" y="0px"
	 viewBox="0 0 8.2 17.6" style="enable-background:new 0 0 8.2 17.6;" xml:space="preserve">
<style type="text/css">
	.st0{fill:#8B9DA6;}
</style>
<g id="XMLID_217_">
	<g id="XMLID_253_">
		<path id="XMLID_254_" class="st0" d="M5.4,13.2c0,1.4,0,2.7,0,4.1c0,0.3,0,0.3-0.3,0.3c-1,0-2.1,0-3.1,0c-0.3,0-0.3,0-0.3-0.3
			c0-2.7,0-5.3,0-8c0-0.5,0.1-0.4-0.5-0.4c-0.4,0-0.7,0-1.1,0C0.1,8.8,0,8.8,0,8.6c0-0.9,0-1.8,0-2.7c0-0.2,0.1-0.2,0.2-0.2
			c0.4,0,0.8,0,1.2,0c0.3,0,0.3,0,0.3-0.3c0-0.6,0-1.2,0-1.8c0-0.7,0.1-1.3,0.5-1.9c0.5-1,1.4-1.5,2.5-1.7C5,0,5.2,0,5.5,0
			c0.8,0,1.6,0,2.4,0c0.2,0,0.2,0,0.2,0.2c0,0.9,0,1.7,0,2.6C8.1,3,8.1,3,7.9,3C7.4,3,6.8,3,6.3,3C5.8,3,5.5,3.2,5.4,3.6
			c0,0.1,0,0.2,0,0.3c0,0.5,0,1.1,0,1.6c0,0.2,0.1,0.2,0.2,0.2c0.8,0,1.5,0,2.3,0c0.3,0,0.3,0,0.3,0.3C8.1,6.8,8,7.7,7.9,8.6
			c0,0.2-0.1,0.2-0.3,0.2c-0.7,0-1.3,0-2,0c-0.3,0-0.3,0-0.3,0.3C5.4,10.4,5.4,11.8,5.4,13.2z"/>
	</g>
</g>
</svg>
