<svg xmlns="http://www.w3.org/2000/svg" viewBox="0 0 18 36" width="7" height="14">
	<defs>
		<clipPath clipPathUnits="userSpaceOnUse" id="cp1">
			<path d="M-1188 -1912L2652 -1912L2652 2512L-1188 2512Z" />
		</clipPath>
	</defs>
	<style>
		tspan { white-space:pre }
		.shp0 { fill: #8b9da6 } 
	</style>
	<g id="Page 1" clip-path="url(#cp1)">
		<path id="Path 78" class="shp0" d="M11.72 26.89C11.72 29.61 11.72 32.32 11.72 35.04C11.72 35.62 11.72 35.62 11.15 35.62C9.08 35.62 7.01 35.62 4.93 35.62C4.38 35.62 4.37 35.61 4.37 35.06C4.37 29.71 4.37 24.36 4.37 19.01C4.37 18 4.5 18.14 3.46 18.13C2.76 18.12 2.05 18.12 1.34 18.13C1.03 18.14 0.91 18.02 0.91 17.71C0.92 15.89 0.92 14.07 0.91 12.25C0.91 11.93 1.03 11.83 1.34 11.83C2.16 11.85 2.97 11.84 3.79 11.84C4.37 11.84 4.37 11.84 4.37 11.23C4.37 10.06 4.35 8.88 4.38 7.7C4.41 6.39 4.67 5.13 5.29 3.96C6.36 1.94 8.1 0.91 10.32 0.6C10.84 0.52 11.36 0.51 11.88 0.51C13.49 0.52 15.11 0.52 16.73 0.51C17.05 0.51 17.19 0.6 17.18 0.94C17.17 2.68 17.17 4.42 17.18 6.16C17.19 6.49 17.08 6.6 16.75 6.6C15.64 6.58 14.52 6.59 13.41 6.6C12.51 6.6 11.95 6.99 11.81 7.69C11.77 7.9 11.73 8.11 11.73 8.33C11.72 9.38 11.73 10.44 11.72 11.5C11.72 11.8 11.88 11.84 12.12 11.84C13.66 11.83 15.2 11.84 16.74 11.84C17.25 11.84 17.29 11.88 17.24 12.39C17.06 14.18 16.86 15.97 16.69 17.77C16.65 18.11 16.44 18.13 16.19 18.13C14.87 18.13 13.56 18.13 12.25 18.13C11.73 18.13 11.72 18.13 11.72 18.66C11.72 21.41 11.72 24.15 11.72 26.89Z" />
	</g>
</svg>