<?xml version="1.0" encoding="utf-8"?>
<!-- Generator: Adobe Illustrator 19.0.0, SVG Export Plug-In . SVG Version: 6.00 Build 0)  -->
<svg version="1.1" id="Layer_1" xmlns="http://www.w3.org/2000/svg" xmlns:xlink="http://www.w3.org/1999/xlink" x="0px" y="0px"
	 viewBox="0 0 30.6 26.3" style="enable-background:new 0 0 30.6 26.3;" xml:space="preserve">
<style type="text/css">
	.st0{fill:#FFFFFF;}
</style>
<g id="XMLID_954_">
	<path id="XMLID_980_" class="st0" d="M24.4,23.4c-1.7,0-3.3,0-5,0c-0.3,0-0.5,0.1-0.6,0.4c-0.6,1.5-2,2.4-3.6,2.4
		c-1.6,0-3-1-3.6-2.5c-0.1-0.3-0.3-0.4-0.6-0.4c-3.3,0-6.5,0-9.8,0c-0.2,0-0.4,0-0.6,0C0.3,23.2,0,22.9,0,22.5c0-0.4,0.2-0.8,0.7-1
		c0.2-0.1,0.4-0.1,0.7-0.1c3.2,0,6.4,0,9.7,0c0.4,0,0.6-0.1,0.8-0.5c0.6-1.5,2-2.4,3.6-2.3c1.5,0,2.9,1,3.5,2.5
		c0.1,0.3,0.3,0.4,0.6,0.4c3.2,0,6.4,0,9.7,0c0.2,0,0.5,0,0.7,0.1c0.5,0.1,0.7,0.5,0.8,0.9c0,0.5-0.3,0.8-0.7,1
		c-0.2,0.1-0.4,0.1-0.6,0.1C27.7,23.4,26,23.4,24.4,23.4z M15.3,19.6c-1.6,0-2.8,1.2-2.8,2.8c0,1.6,1.2,2.8,2.8,2.8
		c1.5,0,2.8-1.3,2.8-2.8C18.1,20.8,16.9,19.6,15.3,19.6z"/>
	<path id="XMLID_970_" class="st0" d="M20.6,4.9c-2.9,0-5.8,0-8.7,0c-0.4,0-0.5,0.1-0.7,0.5c-0.6,1.5-2,2.4-3.6,2.4
		c-1.5,0-2.9-1-3.5-2.4C4,5,3.8,4.8,3.5,4.9c-0.8,0-1.5,0-2.3,0c-0.3,0-0.6-0.1-0.9-0.3C0,4.3-0.1,3.9,0.1,3.5
		c0.2-0.4,0.5-0.6,1-0.6c0.8,0,1.6,0,2.5,0c0.3,0,0.5-0.1,0.6-0.4C4.6,1,6.1,0,7.5,0c1.7,0,3.1,0.9,3.7,2.4c0.1,0.3,0.3,0.4,0.6,0.4
		c5.8,0,11.6,0,17.4,0c0.1,0,0.3,0,0.4,0c0.5,0.1,0.8,0.5,0.8,0.9c0,0.5-0.3,0.9-0.8,1c-0.7,0.1-1.4,0-2.2,0
		C25.3,4.9,22.9,4.9,20.6,4.9C20.6,4.9,20.6,4.9,20.6,4.9z M7.6,6.6c1.6,0,2.8-1.2,2.8-2.8C10.5,2.3,9.2,1,7.6,1
		C6.1,1,4.9,2.3,4.9,3.8C4.9,5.4,6,6.6,7.6,6.6z"/>
	<path id="XMLID_963_" class="st0" d="M28.2,14.1c-0.4,0-0.9,0-1.3,0c-0.2,0-0.3,0.1-0.4,0.3C25.9,16,24.7,16.9,23,17
		c-1.5,0.1-3-0.8-3.7-2.4c-0.1-0.4-0.3-0.5-0.7-0.5c-5.7,0-11.4,0-17.1,0c-0.2,0-0.3,0-0.5,0c-0.6,0-1-0.4-1-1c0-0.5,0.4-1,1-1
		c0.9,0,1.8,0,2.7,0c5,0,10.1,0,15.1,0c0.3,0,0.4-0.1,0.5-0.3c0.6-1.5,2-2.5,3.6-2.5c1.6,0,3,1,3.6,2.6c0.1,0.3,0.2,0.3,0.5,0.3
		c0.8,0,1.6,0,2.5,0c0.7,0,1.1,0.4,1.1,1c0,0.6-0.4,1-1.1,1C29.1,14.1,28.7,14.1,28.2,14.1C28.2,14.1,28.2,14.1,28.2,14.1z
		 M25.7,13.1c0-1.6-1.2-2.8-2.9-2.8c-1.5,0-2.8,1.3-2.8,2.8c0,1.6,1.3,2.8,2.8,2.8C24.5,15.9,25.7,14.7,25.7,13.1z"/>
</g>
</svg>
