<?xml version="1.0" encoding="utf-8"?>
<!-- Generator: Adobe Illustrator 19.0.0, SVG Export Plug-In . SVG Version: 6.00 Build 0)  -->
<svg version="1.1" id="Layer_1" xmlns="http://www.w3.org/2000/svg" xmlns:xlink="http://www.w3.org/1999/xlink" x="0px" y="0px"
	 viewBox="0 0 78.2 65.4" style="enable-background:new 0 0 78.2 65.4;" xml:space="preserve">
<style type="text/css">
	.st0{fill:#F92A65;}
	.st1{fill:#24C8FF;}
	.st2{fill:#FFFFFF;}
	.st3{fill:#22196C;}
</style>
<g id="XMLID_635_">
	<g id="XMLID_1046_">
		<path id="XMLID_1156_" class="st0" d="M3.1,3.1L3.1,3.1c2-2,4.6-3,7.2-3.1c0,0-0.1,0-0.1,0h0C4.6,0,0,4.6,0,10.2v45.1
			c0,5.6,4.6,10.2,10.2,10.2h0c5.6,0,10.2-4.6,10.2-10.2V35.1L3.1,17.9C-1,13.8-1,7.2,3.1,3.1z"/>
		<path id="XMLID_1144_" class="st1" d="M31.6,31.6l7.4-7.4L17.9,3.1C15.8,1,13,0,10.3,0c5.6,0.1,10,4.6,10,10.2v24.9l10.7,10.7
			C27.6,41.7,27.8,35.5,31.6,31.6z"/>
		<path id="XMLID_1138_" class="st2" d="M39.1,49.5c2.7,0,5.4-1,7.4-3.1l0,0c0.2-0.2,0.4-0.4,0.6-0.6l-0.6,0.6
			C44.4,48.5,41.7,49.5,39.1,49.5z"/>
		<path id="XMLID_1105_" class="st1" d="M10.3,0C7.7,0,5.1,1.1,3.1,3.1l0,0C-1,7.2-1,13.8,3.1,17.9l17.3,17.2V10.2
			C20.3,4.6,15.9,0.1,10.3,0z"/>
		<path id="XMLID_1097_" class="st0" d="M75.1,3.1L75.1,3.1C71-1,64.4-1,60.3,3.1L39.1,24.2l7.4,7.4c3.9,3.9,4.1,10.1,0.6,14.2
			l28-27.9C79.2,13.8,79.2,7.2,75.1,3.1z"/>
		<path id="XMLID_1075_" class="st2" d="M31.1,45.8c0.2,0.2,0.4,0.4,0.6,0.6l0,0c2.1,2.1,4.7,3.1,7.4,3.1c-2.7,0-5.3-1-7.4-3.1
			L31.1,45.8z"/>
		<path id="XMLID_1061_" class="st3" d="M46.5,31.6l-7.4-7.4l-7.4,7.4c-3.9,3.9-4.1,10.1-0.6,14.2l0.6,0.6c2,2,4.7,3.1,7.4,3.1
			c2.7,0,5.3-1,7.4-3.1l0.6-0.6C50.6,41.7,50.4,35.5,46.5,31.6z"/>
	</g>
	<circle id="XMLID_637_" class="st1" cx="68" cy="55.3" r="10.2"/>
</g>
</svg>
