<?xml version="1.0" encoding="utf-8"?>
<!-- Generator: Adobe Illustrator 19.0.0, SVG Export Plug-In . SVG Version: 6.00 Build 0)  -->
<svg version="1.1" id="Layer_1" xmlns="http://www.w3.org/2000/svg" xmlns:xlink="http://www.w3.org/1999/xlink" x="0px" y="0px"
	 viewBox="0 0 20.4 20.4" style="enable-background:new 0 0 20.4 20.4;" xml:space="preserve">
<style type="text/css">
	.st0{fill:#FFFFFF;}
</style>
<g id="XMLID_1524_">
	<g id="XMLID_1523_">
		<path id="XMLID_1559_" class="st0" d="M10.2,0c5.6,0,10.2,4.6,10.2,10.2c0,5.6-4.6,10.2-10.2,10.2C4.6,20.4,0,15.8,0,10.2
			C0,4.6,4.6,0,10.2,0z M1.8,10.2c0,4.6,3.7,8.4,8.4,8.4c4.6,0,8.3-3.7,8.4-8.3c0.1-4.7-3.7-8.5-8.2-8.5C5.6,1.7,1.8,5.5,1.8,10.2z"
			/>
		<path id="XMLID_1558_" class="st0" d="M9.4,7.7c0.6,0,1.2,0,1.8,0c0.4,0,0.6,0.2,0.7,0.6c0.1,0.3,0,0.7-0.1,1
			c-0.3,1.4-0.5,2.7-0.8,4.1c-0.1,0.5-0.2,1-0.2,1.5c0,0.7,0.4,0.9,1,0.7c0.2-0.1,0.4-0.2,0.6-0.3c0.3-0.1,0.4-0.1,0.5,0
			c0.1,0.2,0.1,0.4,0,0.6c-0.5,0.6-1.2,1.1-2,1.2c-0.6,0.1-1.3,0.1-1.9,0c-0.8-0.2-1.4-0.9-1.5-1.7c0-0.5,0.1-0.9,0.2-1.4
			c0.3-1.4,0.5-2.9,0.7-4.3c0.1-0.6-0.1-0.8-0.7-0.8c-0.2,0-0.5,0-0.6-0.2C6.9,8.4,6.8,8.3,6.8,8.1c0-0.2,0.1-0.3,0.3-0.4
			c0.1,0,0.3-0.1,0.4-0.1C8.1,7.7,8.7,7.7,9.4,7.7L9.4,7.7z"/>
	</g>
	<path id="XMLID_1557_" class="st0" d="M10.4,6.9C9.4,6.9,8.5,6,8.5,5c0-1,0.9-1.8,1.8-1.8c1,0,1.9,0.9,1.8,1.9
		C12.2,6.1,11.4,6.9,10.4,6.9z"/>
</g>
</svg>
