<svg xmlns="http://www.w3.org/2000/svg" viewBox="0 0 42 42" width="42" height="42">
	<defs>
		<clipPath clipPathUnits="userSpaceOnUse" id="cp1">
			<path d="M-363 -1767L3477 -1767L3477 1702L-363 1702Z" />
		</clipPath>
	</defs>
	<style>
		tspan { white-space:pre }
		.shp0 { fill: #ffffff } 
	</style>
	<g id="Page 1" clip-path="url(#cp1)">
		<path id="Path 43" fill-rule="evenodd" class="shp0" d="M21.02 0.82C32.23 0.78 41.41 10 41.39 21.25C41.37 32.44 32.19 41.61 20.97 41.59C9.74 41.58 0.58 32.38 0.6 21.16C0.62 9.97 9.8 0.74 21.02 0.82ZM4.18 21.2C4.21 30.42 11.6 38.01 21.02 38C30.24 37.99 37.66 30.65 37.8 21.46C37.93 11.99 30.42 4.52 21.31 4.41C11.78 4.28 4.23 11.76 4.18 21.2ZM19.31 16.15C20.52 16.15 21.73 16.15 22.94 16.15C23.71 16.15 24.13 16.52 24.3 17.28C24.46 17.97 24.26 18.62 24.13 19.29C23.62 22.03 23.14 24.77 22.61 27.51C22.42 28.48 22.2 29.43 22.2 30.42C22.2 31.79 23.02 32.26 24.27 31.79C24.66 31.65 25.01 31.39 25.39 31.19C25.93 30.91 26.26 30.92 26.49 31.18C26.76 31.5 26.76 31.95 26.39 32.39C25.31 33.66 23.95 34.5 22.31 34.77C21.02 34.98 19.72 35.06 18.43 34.7C16.87 34.27 15.61 32.81 15.52 31.23C15.46 30.3 15.66 29.38 15.82 28.46C16.33 25.57 16.87 22.69 17.32 19.79C17.5 18.62 17.04 18.2 16.01 18.18C15.55 18.17 15.11 18.1 14.72 17.83C14.43 17.63 14.24 17.37 14.28 16.99C14.33 16.62 14.56 16.4 14.9 16.27C15.15 16.17 15.41 16.14 15.68 16.14C16.89 16.15 18.1 16.15 19.31 16.15L19.31 16.15ZM21.37 14.6C19.32 14.58 17.68 12.89 17.7 10.82C17.72 8.84 19.42 7.14 21.38 7.15C23.41 7.16 25.11 8.89 25.08 10.92C25.05 12.94 23.37 14.61 21.37 14.6Z" />
	</g>
</svg>