<svg xmlns="http://www.w3.org/2000/svg" viewBox="0 0 44 35" width="44" height="35">
	<defs>
		<clipPath clipPathUnits="userSpaceOnUse" id="cp1">
			<path d="M-225 -752L3615 -752L3615 2717L-225 2717Z" />
		</clipPath>
	</defs>
	<style>
		tspan { white-space:pre }
		.shp0 { fill: #ffffff } 
	</style>
	<g id="Page 1" clip-path="url(#cp1)">
		<path id="Path 131" class="shp0" d="M5.8 10.51L1.24 10.51C1.04 10.51 0.86 10.58 0.71 10.74C0.56 10.89 0.48 11.06 0.48 11.27L0.48 14.44C0.48 14.64 0.56 14.82 0.71 14.97C0.86 15.12 1.04 15.2 1.24 15.2L5.8 15.2C6.01 15.2 6.19 15.12 6.34 14.97C6.49 14.82 6.56 14.64 6.56 14.44L6.56 11.27C6.56 11.06 6.49 10.89 6.34 10.74C6.19 10.59 6.01 10.51 5.8 10.51ZM5.8 20.24L1.24 20.24C1.04 20.24 0.86 20.32 0.71 20.47C0.56 20.62 0.48 20.79 0.48 21L0.48 24.17C0.48 24.38 0.56 24.55 0.71 24.7C0.86 24.85 1.04 24.93 1.24 24.93L5.8 24.93C6.01 24.93 6.19 24.85 6.34 24.7C6.49 24.55 6.56 24.38 6.56 24.17L6.56 21C6.56 20.79 6.49 20.62 6.34 20.47C6.19 20.32 6.01 20.24 5.8 20.24ZM5.8 0.78L1.24 0.78C1.04 0.78 0.86 0.86 0.71 1.01C0.56 1.16 0.48 1.33 0.48 1.54L0.48 4.71C0.48 4.92 0.56 5.09 0.71 5.24C0.86 5.39 1.04 5.47 1.24 5.47L5.8 5.47C6.01 5.47 6.19 5.39 6.34 5.24C6.49 5.09 6.56 4.92 6.56 4.71L6.56 1.54C6.56 1.33 6.49 1.16 6.34 1.01C6.19 0.86 6.01 0.78 5.8 0.78ZM42.28 20.24L10.36 20.24C10.16 20.24 9.98 20.32 9.83 20.47C9.68 20.62 9.6 20.79 9.6 21L9.6 24.17C9.6 24.38 9.68 24.55 9.83 24.7C9.98 24.85 10.16 24.93 10.36 24.93L42.28 24.93C42.48 24.93 42.66 24.85 42.81 24.7C42.96 24.55 43.04 24.38 43.04 24.17L43.04 21C43.04 20.79 42.96 20.62 42.81 20.47C42.66 20.32 42.48 20.24 42.28 20.24ZM42.81 1.01C42.66 0.86 42.48 0.78 42.28 0.78L10.36 0.78C10.16 0.78 9.98 0.86 9.83 1.01C9.68 1.16 9.6 1.33 9.6 1.54L9.6 4.71C9.6 4.92 9.68 5.09 9.83 5.24C9.98 5.39 10.16 5.47 10.36 5.47L42.28 5.47C42.48 5.47 42.66 5.39 42.81 5.24C42.96 5.09 43.04 4.92 43.04 4.71L43.04 1.54C43.04 1.33 42.96 1.16 42.81 1.01ZM42.28 10.51L10.36 10.51C10.16 10.51 9.98 10.58 9.83 10.74C9.68 10.89 9.6 11.06 9.6 11.27L9.6 14.44C9.6 14.64 9.68 14.82 9.83 14.97C9.98 15.12 10.16 15.2 10.36 15.2L42.28 15.2C42.48 15.2 42.66 15.12 42.81 14.97C42.96 14.82 43.04 14.64 43.04 14.44L43.04 11.27C43.04 11.06 42.96 10.89 42.81 10.74C42.66 10.59 42.48 10.51 42.28 10.51ZM5.8 29.97L1.24 29.97C1.04 29.97 0.86 30.04 0.71 30.2C0.56 30.35 0.48 30.52 0.48 30.73L0.48 33.9C0.48 34.1 0.56 34.28 0.71 34.43C0.86 34.58 1.04 34.66 1.24 34.66L5.8 34.66C6.01 34.66 6.19 34.58 6.34 34.43C6.49 34.28 6.56 34.1 6.56 33.9L6.56 30.73C6.56 30.52 6.49 30.35 6.34 30.2C6.19 30.04 6.01 29.97 5.8 29.97ZM42.28 29.97L10.36 29.97C10.16 29.97 9.98 30.04 9.83 30.2C9.68 30.35 9.6 30.52 9.6 30.73L9.6 33.9C9.6 34.1 9.68 34.28 9.83 34.43C9.98 34.58 10.16 34.66 10.36 34.66L42.28 34.66C42.48 34.66 42.66 34.58 42.81 34.43C42.96 34.28 43.04 34.1 43.04 33.9L43.04 30.73C43.04 30.52 42.96 30.35 42.81 30.2C42.66 30.04 42.48 29.97 42.28 29.97Z" />
	</g>
</svg>