<?xml version="1.0" encoding="utf-8"?>
<!-- Generator: Adobe Illustrator 19.0.0, SVG Export Plug-In . SVG Version: 6.00 Build 0)  -->
<svg version="1.1" id="Layer_1" xmlns="http://www.w3.org/2000/svg" xmlns:xlink="http://www.w3.org/1999/xlink" x="0px" y="0px"
	 viewBox="0 0 21.3 16.9" style="enable-background:new 0 0 21.3 16.9;" xml:space="preserve">
<style type="text/css">
	.st0{fill:#FFFFFF;}
</style>
<g id="XMLID_1188_">
	<g id="XMLID_1202_">
		<path id="XMLID_1167_" class="st0" d="M2.7,4.9H0.4c-0.1,0-0.2,0-0.3,0.1C0,5.1,0,5.1,0,5.2v1.6C0,6.9,0,7,0.1,7.1
			c0.1,0.1,0.2,0.1,0.3,0.1h2.3c0.1,0,0.2,0,0.3-0.1C3,7,3,6.9,3,6.8V5.2C3,5.1,3,5.1,2.9,5C2.9,4.9,2.8,4.9,2.7,4.9z"/>
		<path id="XMLID_1147_" class="st0" d="M2.7,9.7H0.4c-0.1,0-0.2,0-0.3,0.1S0,10,0,10.1v1.6c0,0.1,0,0.2,0.1,0.3
			c0.1,0.1,0.2,0.1,0.3,0.1h2.3c0.1,0,0.2,0,0.3-0.1C3,11.9,3,11.8,3,11.7v-1.6C3,10,3,9.9,2.9,9.8C2.9,9.8,2.8,9.7,2.7,9.7z"/>
		<path id="XMLID_1145_" class="st0" d="M2.7,0H0.4C0.3,0,0.2,0,0.1,0.1S0,0.3,0,0.4V2c0,0.1,0,0.2,0.1,0.3s0.2,0.1,0.3,0.1h2.3
			c0.1,0,0.2,0,0.3-0.1C3,2.2,3,2.1,3,2V0.4c0-0.1,0-0.2-0.1-0.3C2.9,0,2.8,0,2.7,0z"/>
		<path id="XMLID_1136_" class="st0" d="M20.9,9.7h-16c-0.1,0-0.2,0-0.3,0.1C4.6,9.9,4.6,10,4.6,10.1v1.6c0,0.1,0,0.2,0.1,0.3
			c0.1,0.1,0.2,0.1,0.3,0.1h16c0.1,0,0.2,0,0.3-0.1c0.1-0.1,0.1-0.2,0.1-0.3v-1.6c0-0.1,0-0.2-0.1-0.3C21.1,9.8,21,9.7,20.9,9.7z"/>
		<path id="XMLID_1132_" class="st0" d="M21.2,0.1C21.1,0,21,0,20.9,0h-16C4.8,0,4.7,0,4.7,0.1C4.6,0.2,4.6,0.3,4.6,0.4V2
			c0,0.1,0,0.2,0.1,0.3c0.1,0.1,0.2,0.1,0.3,0.1h16c0.1,0,0.2,0,0.3-0.1c0.1-0.1,0.1-0.2,0.1-0.3V0.4C21.3,0.3,21.2,0.2,21.2,0.1z"
			/>
		<path id="XMLID_1126_" class="st0" d="M20.9,4.9h-16c-0.1,0-0.2,0-0.3,0.1C4.6,5.1,4.6,5.1,4.6,5.2v1.6c0,0.1,0,0.2,0.1,0.3
			c0.1,0.1,0.2,0.1,0.3,0.1h16c0.1,0,0.2,0,0.3-0.1c0.1-0.1,0.1-0.2,0.1-0.3V5.2c0-0.1,0-0.2-0.1-0.3C21.1,4.9,21,4.9,20.9,4.9z"/>
		<path id="XMLID_1208_" class="st0" d="M2.7,14.6H0.4c-0.1,0-0.2,0-0.3,0.1C0,14.8,0,14.9,0,15v1.6c0,0.1,0,0.2,0.1,0.3
			c0.1,0.1,0.2,0.1,0.3,0.1h2.3c0.1,0,0.2,0,0.3-0.1C3,16.8,3,16.7,3,16.6V15c0-0.1,0-0.2-0.1-0.3C2.9,14.6,2.8,14.6,2.7,14.6z"/>
		<path id="XMLID_1203_" class="st0" d="M20.9,14.6h-16c-0.1,0-0.2,0-0.3,0.1c-0.1,0.1-0.1,0.2-0.1,0.3v1.6c0,0.1,0,0.2,0.1,0.3
			c0.1,0.1,0.2,0.1,0.3,0.1h16c0.1,0,0.2,0,0.3-0.1c0.1-0.1,0.1-0.2,0.1-0.3V15c0-0.1,0-0.2-0.1-0.3C21.1,14.6,21,14.6,20.9,14.6z"
			/>
	</g>
</g>
</svg>
