<svg xmlns="http://www.w3.org/2000/svg" viewBox="0 0 151 68" width="151" height="68">
	<defs>
		<clipPath clipPathUnits="userSpaceOnUse" id="cp1">
			<path d="M-1075 -1744L2765 -1744L2765 1725L-1075 1725Z" />
		</clipPath>
	</defs>
	<style>
		tspan { white-space:pre }
		.shp0 { fill: #f92a65 } 
	</style>
	<g id="Page 1" clip-path="url(#cp1)">
		<path id="Path 46" fill-rule="evenodd" class="shp0" d="M12.89 67.21C12.53 67.08 12.15 66.97 11.8 66.81C10.29 66.07 9.44 64.84 9.4 63.15C9.35 60.85 9.4 58.55 9.38 56.25C9.37 55.84 9.5 55.73 9.89 55.75C10.59 55.78 11.28 55.79 11.98 55.75C12.43 55.72 12.51 55.91 12.5 56.31C12.49 58.46 12.49 60.6 12.49 62.75C12.5 63.73 12.85 64.09 13.82 64.09C26.82 64.09 39.82 64.09 52.82 64.09C53.83 64.09 54.18 63.74 54.18 62.72C54.18 47.83 54.18 32.95 54.18 18.06C54.18 17.22 54.16 17.2 53.28 17.2C50.63 17.2 47.98 17.2 45.34 17.2C42.49 17.2 40.63 15.31 40.63 12.45C40.64 9.78 40.62 7.11 40.64 4.44C40.65 3.85 40.46 3.65 39.86 3.65C31.18 3.66 22.5 3.66 13.82 3.66C12.85 3.66 12.49 4.02 12.49 5C12.49 12.64 12.49 20.28 12.51 27.91C12.51 28.48 12.4 28.73 11.78 28.67C11.17 28.61 10.56 28.63 9.96 28.67C9.5 28.69 9.37 28.56 9.37 28.1C9.39 25.49 9.38 22.89 9.38 20.28C9.38 15.21 9.38 10.13 9.38 5.05C9.38 2.29 11.11 0.55 13.89 0.55C22.94 0.55 31.99 0.55 41.04 0.54C41.49 0.54 41.8 0.68 42.12 0.99C47.02 5.91 51.93 10.82 56.85 15.72C57.16 16.04 57.3 16.35 57.3 16.8C57.28 31.88 57.29 46.96 57.29 62.04C57.29 65.14 56.62 66.12 53.78 67.21L12.89 67.21ZM24.02 32.84C30.84 32.84 37.65 32.84 44.47 32.84C46.65 32.84 47.91 34.1 47.91 36.27C47.91 40.26 47.91 44.25 47.91 48.24C47.91 50.28 46.6 51.57 44.56 51.57C30.85 51.57 17.13 51.57 3.42 51.57C1.28 51.57 0.01 50.31 0.01 48.18C0 44.16 0 40.15 0.01 36.14C0.01 34.14 1.32 32.84 3.32 32.84C10.22 32.84 17.12 32.84 24.02 32.84ZM12.45 42.33C12.47 42.08 12.47 41.73 12.52 41.38C12.78 39.56 14.13 38.54 15.74 38.96C16.58 39.17 17 39.82 17.38 40.52C17.65 41.01 18.04 41.23 18.57 41.01C19.08 40.79 19.13 40.32 19.01 39.85C18.84 39.14 18.41 38.6 17.84 38.18C15.03 36.1 11.07 37.72 10.53 41.17C9.92 45.07 12.1 47.63 15.75 47.29C17.44 47.14 18.91 45.82 19.08 44.31C19.14 43.82 18.97 43.44 18.49 43.28C18.01 43.12 17.65 43.33 17.45 43.8C17.39 43.92 17.35 44.04 17.3 44.16C16.82 45.31 16.04 45.8 14.81 45.73C13.73 45.67 12.97 45.04 12.63 43.9C12.49 43.42 12.48 42.92 12.45 42.33ZM24.5 47.32C25.24 47.34 26.1 47.19 26.88 46.7C27.84 46.08 28.28 45.18 28.23 44.05C28.18 42.97 27.59 42.24 26.61 41.81C26.12 41.59 25.6 41.43 25.08 41.29C24.51 41.14 23.94 41 23.39 40.81C22.92 40.64 22.5 40.37 22.54 39.79C22.58 39.21 23.01 38.93 23.52 38.8C24.96 38.46 25.64 38.91 26.12 40.01C26.33 40.48 26.71 40.72 27.23 40.52C27.73 40.32 27.86 39.89 27.77 39.39C27.61 38.57 27.08 38.04 26.36 37.71C24.96 37.08 23.53 37.12 22.14 37.75C21.22 38.17 20.72 38.93 20.7 39.96C20.67 41.01 21.16 41.74 22.06 42.22C22.65 42.55 23.3 42.72 23.96 42.88C24.52 43.03 25.11 43.11 25.62 43.41C26.43 43.88 26.5 44.82 25.79 45.42C24.78 46.27 23.04 45.92 22.45 44.74C22.33 44.49 22.22 44.22 22.07 43.98C21.85 43.62 21.49 43.54 21.11 43.65C20.74 43.76 20.54 44.04 20.52 44.43C20.5 44.9 20.66 45.32 20.91 45.71C21.71 46.97 22.94 47.32 24.5 47.32ZM33.52 45.03C33.3 44.39 33.12 43.89 32.95 43.38C32.41 41.78 31.87 40.18 31.33 38.58C31.23 38.3 31.12 38.01 30.98 37.74C30.75 37.32 30.37 37.2 29.93 37.33C29.46 37.47 29.2 37.8 29.24 38.3C29.28 38.78 29.5 39.21 29.66 39.66C30.45 41.82 31.23 43.97 32.03 46.12C32.26 46.74 32.58 47.27 33.33 47.32C34.11 47.36 34.55 47.05 34.9 46.13C35.66 44.1 36.4 42.07 37.15 40.04C37.34 39.51 37.55 38.98 37.7 38.44C37.84 37.93 37.61 37.55 37.12 37.36C36.61 37.17 36.22 37.35 35.98 37.82C35.85 38.09 35.76 38.39 35.67 38.67C34.97 40.74 34.27 42.81 33.52 45.03ZM126.18 1.85C127.73 2.2 129.16 2.77 130.38 3.81C131.94 5.12 132.93 6.76 133.34 8.75C133.45 9.28 133.66 9.46 134.2 9.45C137.2 9.43 140.2 9.43 143.2 9.44C147.02 9.46 150.04 11.94 150.65 15.7C151.21 19.18 149.69 22.25 146.7 23.74C146.19 24 146.1 24.33 146.1 24.83C146.11 35.91 146.09 47 146.12 58.08C146.13 60.7 145.25 62.84 143.17 64.44C141.94 65.38 140.55 65.89 138.99 65.89C129.54 65.9 120.08 65.91 110.62 65.89C106.82 65.88 103.53 62.62 103.52 58.83C103.5 47.56 103.5 36.29 103.52 25.02C103.52 24.33 103.33 23.97 102.7 23.62C100.23 22.24 99 20.09 98.88 17.25C98.7 13.32 101.42 10.35 104.62 9.63C105.23 9.5 105.85 9.44 106.48 9.44C109.48 9.44 112.48 9.43 115.48 9.45C115.92 9.45 116.15 9.34 116.26 8.87C117.1 5.13 119.42 2.83 123.14 1.94C123.24 1.92 123.34 1.88 123.43 1.85L126.18 1.85ZM124.77 20.95C130.92 20.95 137.06 20.96 143.2 20.95C145.29 20.95 146.74 19.73 147.1 17.72C147.5 15.53 146.03 13.35 143.99 13.14C143.33 13.07 142.66 13.03 142 13.03C130.71 13.02 119.42 13.03 108.13 13.02C107.38 13.02 106.64 13.04 105.89 13.11C104.63 13.23 103.66 13.82 103.04 14.89C102.26 16.22 102.23 17.63 102.96 19C103.69 20.35 104.87 20.96 106.4 20.96C112.53 20.95 118.65 20.95 124.77 20.95ZM124.83 24.61C119.2 24.61 113.58 24.61 107.95 24.61C107.09 24.61 107.09 24.62 107.09 25.48C107.09 36.37 107.09 47.26 107.09 58.16C107.09 60.77 108.65 62.31 111.26 62.32C120.28 62.32 129.3 62.32 138.32 62.32C140.98 62.32 142.53 60.78 142.53 58.13C142.53 47.26 142.53 36.39 142.53 25.51C142.53 24.62 142.53 24.61 141.64 24.61C136.03 24.61 130.43 24.61 124.83 24.61ZM124.8 9.44C126.26 9.44 127.71 9.42 129.17 9.45C129.72 9.46 129.8 9.27 129.63 8.79C128.94 6.82 126.96 5.41 124.85 5.39C122.72 5.37 120.7 6.78 120 8.78C119.79 9.37 119.84 9.44 120.5 9.44C121.94 9.44 123.37 9.44 124.8 9.44ZM117.33 46.51C117.33 49.58 117.33 52.64 117.33 55.7C117.33 55.99 117.32 56.29 117.26 56.57C117.07 57.45 116.32 58.04 115.47 58.01C114.58 57.98 113.92 57.4 113.76 56.48C113.7 56.16 113.68 55.82 113.68 55.49C113.68 49.45 113.68 43.41 113.68 37.37C113.68 37.02 113.7 36.66 113.77 36.32C113.93 35.51 114.59 34.96 115.39 34.93C116.26 34.89 116.95 35.35 117.21 36.15C117.33 36.5 117.33 36.85 117.33 37.2C117.33 40.31 117.33 43.41 117.33 46.51ZM132.29 46.48C132.29 43.31 132.28 40.15 132.29 36.98C132.29 35.65 133.06 34.86 134.26 34.93C135.03 34.97 135.7 35.53 135.84 36.29C135.91 36.68 135.93 37.07 135.93 37.47C135.94 43.47 135.94 49.46 135.93 55.46C135.93 55.83 135.91 56.21 135.84 56.58C135.68 57.41 135.02 57.97 134.17 58.01C133.37 58.05 132.64 57.51 132.39 56.72C132.29 56.39 132.29 56.06 132.29 55.73C132.29 52.64 132.29 49.56 132.29 46.48ZM126.6 46.48C126.6 49.71 126.6 52.94 126.59 56.16C126.59 57.03 126.12 57.66 125.35 57.92C124.61 58.16 123.84 57.91 123.36 57.25C123.12 56.92 123.02 56.55 123.02 56.14C123.02 49.69 123.02 43.23 123.02 36.78C123.02 35.67 123.75 34.94 124.79 34.93C125.86 34.92 126.59 35.66 126.6 36.8C126.6 40.03 126.6 43.25 126.6 46.48Z" />
	</g>
</svg>