<?xml version="1.0" encoding="utf-8"?>
<!-- Generator: Adobe Illustrator 19.0.0, SVG Export Plug-In . SVG Version: 6.00 Build 0)  -->
<svg version="1.1" id="Layer_1" xmlns="http://www.w3.org/2000/svg" xmlns:xlink="http://www.w3.org/1999/xlink" x="0px" y="0px"
	 viewBox="0 0 17.5 14.3" style="enable-background:new 0 0 17.5 14.3;" xml:space="preserve">
<style type="text/css">
	.st0{fill:#8B9DA6;}
</style>
<g id="XMLID_217_">
	<path id="XMLID_491_" class="st0" d="M17.5,1.7C17.5,1.8,17.5,1.8,17.5,1.7C17.1,2.4,16.6,3,16,3.4c-0.2,0.1-0.2,0.3-0.2,0.5
		c0,0.9-0.1,1.8-0.3,2.6C14,11.9,9.2,15,3.8,14.2c-1.4-0.2-2.6-0.8-3.8-1.4c0,0,0-0.1,0-0.1c0.3,0,0.5,0,0.8,0
		c1.4,0,2.7-0.4,3.9-1.1c0.1-0.1,0.3-0.1,0.4-0.3c-0.2,0-0.4-0.1-0.5-0.1c-1.1-0.3-1.9-0.9-2.5-2C1.9,8.7,1.9,8.7,2.4,8.7
		c0.3,0,0.6,0,0.9,0C3.1,8.5,3.1,8.5,3,8.5c-1.3-0.6-2.1-1.6-2.3-3c0-0.4,0-0.4,0.4-0.3c0.3,0.1,0.7,0.2,1.1,0.3
		C2,5.3,1.9,5.2,1.8,5.1C0.7,4.1,0.4,2.4,1,1c0.2-0.4,0.2-0.4,0.5-0.1c0.8,0.9,1.7,1.6,2.7,2.2c1.2,0.7,2.5,1.1,3.9,1.2
		c0.3,0,0.5,0,0.4-0.4C8.4,3.1,8.7,2.3,9.2,1.6c1.2-1.7,3.6-2.1,5.3-0.7C14.7,1.1,15,1.1,15.3,1c0.5-0.2,1-0.3,1.4-0.6
		c0.1,0,0.2-0.2,0.3-0.1c-0.2,0.7-0.7,1.3-1.3,1.8C16.4,2.1,17,1.9,17.5,1.7z"/>
</g>
</svg>
