<svg xmlns="http://www.w3.org/2000/svg" viewBox="0 0 36 30" width="20" height="12">
	<defs>
		<clipPath clipPathUnits="userSpaceOnUse" id="cp1">
			<path d="M-1291 -1915L2549 -1915L2549 2509L-1291 2509Z" />
		</clipPath>
	</defs>
	<style>
		tspan { white-space:pre }
		.shp0 { fill: #8b9da6 } 
	</style>
	<g id="Page 1" clip-path="url(#cp1)">
		<path id="Path 81" class="shp0" d="M35.27 4.25L35.27 4.41C34.36 5.61 33.38 6.75 32.16 7.66C31.8 7.93 31.74 8.27 31.75 8.68C31.82 10.46 31.57 12.2 31.12 13.91C28.31 24.57 18.69 30.83 7.81 29.09C5.08 28.66 2.59 27.59 0.22 26.22L0.22 26.06C0.77 26.06 1.31 26.05 1.86 26.06C4.69 26.12 7.29 25.35 9.68 23.85C9.93 23.69 10.23 23.57 10.4 23.22C10.03 23.14 9.68 23.08 9.34 22.99C7.1 22.42 5.45 21.11 4.44 19.01C4.03 18.18 4.11 18.09 5.01 18.11C5.58 18.12 6.14 18.11 6.71 18.11C6.52 17.84 6.32 17.77 6.14 17.69C3.48 16.54 1.96 14.52 1.59 11.66C1.49 10.89 1.62 10.81 2.32 11.1C2.99 11.37 3.67 11.57 4.51 11.62C4.25 11.38 4.06 11.21 3.88 11.03C1.63 8.87 0.97 5.54 2.25 2.8C2.58 2.08 2.67 2.06 3.17 2.64C4.75 4.43 6.57 5.91 8.65 7.07C11.07 8.41 13.65 9.2 16.4 9.5C17.05 9.57 17.35 9.4 17.26 8.65C17.05 6.9 17.53 5.3 18.54 3.87C21.01 0.37 25.78 -0.28 29.09 2.44C29.64 2.9 30.14 3 30.79 2.79C31.76 2.48 32.7 2.12 33.61 1.66C33.79 1.56 33.97 1.34 34.3 1.56C33.85 2.98 32.92 4.07 31.65 5.15C33.08 5.02 34.13 4.48 35.27 4.25Z" />
	</g>
</svg>