<?xml version="1.0" encoding="utf-8"?><svg xmlns="http://www.w3.org/2000/svg" xmlns:xlink="http://www.w3.org/1999/xlink">
  <symbol viewBox="0 0 15 15" id="anchor" xmlns="http://www.w3.org/2000/svg">
    <path d="M8.888 6.446a2.778 2.778 0 00-3.928 0L2.182 9.224a2.777 2.777 0 103.928 3.928l.765-.765M8.313 9.8c.736 0 1.443-.293 1.963-.814l2.778-2.777A2.778 2.778 0 009.126 2.28l-.763.764" />
  </symbol>
  <symbol viewBox="0 0 8 95" id="arrow-long" xmlns="http://www.w3.org/2000/svg">
    <path d="M3.646 94.354a.5.5 0 00.708 0l3.182-3.182a.5.5 0 10-.708-.707L4 93.293l-2.828-2.829a.5.5 0 10-.708.708l3.182 3.182zM3.5 0v94h1V0h-1z" />
  </symbol>
  <symbol viewBox="0 0 14 16" id="arrow-nav" xmlns="http://www.w3.org/2000/svg">
    <path d="M.293 7.293a1 1 0 000 1.414l6.364 6.364a1 1 0 001.414-1.414L2.414 8l5.657-5.657A1 1 0 006.657.93L.293 7.293zM14 7H1v2h13V7z" />
  </symbol>
  <symbol viewBox="0 0 18 20" id="basket" xmlns="http://www.w3.org/2000/svg">
    <path d="M7 9v6m4-6v6M1 5h16m-1 0l-.867 12.142A2 2 0 0113.138 19H4.862a2 2 0 01-1.995-1.858L2 5h14zm-4 0V2a1 1 0 00-1-1H7a1 1 0 00-1 1v3h6z" />
  </symbol>
  <symbol viewBox="0 0 19 19" id="calendar" xmlns="http://www.w3.org/2000/svg">
    <path d="M5.722 4.778V1m7.556 3.778V1m-8.5 7.556h9.444M2.89 18H16.11A1.89 1.89 0 0018 16.111V4.778a1.889 1.889 0 00-1.889-1.89H2.89A1.889 1.889 0 001 4.779V16.11A1.89 1.89 0 002.889 18z" />
  </symbol>
  <symbol viewBox="0 0 20 18" id="camera" xmlns="http://www.w3.org/2000/svg">
    <path d="M1 6a2 2 0 012-2h.93a2 2 0 001.664-.89l.812-1.22A2 2 0 018.07 1h3.86a2 2 0 011.664.89l.812 1.22A2 2 0 0016.07 4H17a2 2 0 012 2v9a2 2 0 01-2 2H3a2 2 0 01-2-2V6z" />
    <path d="M13 10a3 3 0 11-6 0 3 3 0 016 0z" />
  </symbol>
  <symbol viewBox="0 0 26 28" id="cloud" xmlns="http://www.w3.org/2000/svg">
    <path d="M2.778 17.855a5.126 5.126 0 01-.787-6.913 5.34 5.34 0 013.173-2.059 6.397 6.397 0 01.92-4.906 6.668 6.668 0 014.2-2.832 6.79 6.79 0 015.016.9 6.518 6.518 0 012.897 4.106h.133a6.75 6.75 0 014.473 1.68 6.466 6.466 0 012.163 4.18 6.41 6.41 0 01-1.264 4.52m-6.705-1.259L13 11.363m0 0l-3.998 3.91M13 11.362V27" />
  </symbol>
  <symbol viewBox="0 0 20 20" id="comment" xmlns="http://www.w3.org/2000/svg">
    <path d="M5.586 14.414A1.995 1.995 0 007 15h4l4 4v-4h2a2 2 0 002-2V7a2 2 0 00-2-2h-2v4m-9.414 5.414L9 11h4m-7.414 3.414L5 15v-4H3a2 2 0 01-2-2V3a2 2 0 012-2h10a2 2 0 012 2v6m-2 2a2 2 0 001.414-.586M13 11l1.414-.586m0 0A2 2 0 0015 9m-.586 1.414L15 9" />
  </symbol>
  <symbol viewBox="0 0 14 14" id="edit" xmlns="http://www.w3.org/2000/svg">
    <path d="M13.627.373a1.273 1.273 0 00-1.8 0L7 5.2V7h1.8l4.827-4.828a1.272 1.272 0 000-1.8z" />
    <path fill-rule="evenodd" clip-rule="evenodd" d="M.8 2.4A1.8 1.8 0 012.6.6h3.6a.9.9 0 010 1.8H2.6v9h9V7.8a.9.9 0 111.8 0v3.6a1.8 1.8 0 01-1.8 1.8h-9a1.8 1.8 0 01-1.8-1.8v-9z" />
  </symbol>
  <symbol viewBox="0 0 14 14" id="edit-2" xmlns="http://www.w3.org/2000/svg">
    <path d="M9.155 2.485l2.357 2.353m-1.357-3.35A1.669 1.669 0 0113 2.663c0 .44-.176.864-.488 1.176L3.333 13H1v-2.377l9.155-9.136z" />
  </symbol>
  <symbol viewBox="0 0 21 16" id="eye" xmlns="http://www.w3.org/2000/svg">
    <path d="M13.542 8a3 3 0 11-6 0 3 3 0 016 0z" />
    <path d="M1 8c1.274-4.057 5.065-7 9.542-7 4.478 0 8.268 2.943 9.542 7-1.274 4.057-5.064 7-9.542 7C6.065 15 2.274 12.057 1 8z" />
  </symbol>
  <symbol viewBox="0 0 9 16" id="facebook" xmlns="http://www.w3.org/2000/svg">
    <path d="M8.661.003L6.502 0C4.077 0 2.51 1.546 2.51 3.938v1.815H.34A.333.333 0 000 6.08v2.63c0 .18.152.326.34.326h2.17v6.638c0 .18.152.326.34.326H5.68c.188 0 .34-.146.34-.326V9.036h2.537c.188 0 .34-.146.34-.326V6.08a.32.32 0 00-.099-.231.347.347 0 00-.24-.096H6.021V4.214c0-.74.183-1.115 1.186-1.115H8.66c.187 0 .339-.147.339-.327V.33a.333.333 0 00-.339-.327z" />
  </symbol>
  <symbol viewBox="0 0 18 18" id="facebook-messenger" xmlns="http://www.w3.org/2000/svg">
    <path fill-rule="evenodd" clip-rule="evenodd" d="M9 0C4.03 0 0 3.731 0 8.333c0 2.623 1.309 4.962 3.354 6.49V18l3.064-1.682A9.672 9.672 0 009 16.667c4.97 0 9-3.731 9-8.334C18 3.731 13.97 0 9 0zm.894 11.222L7.602 8.778 3.13 11.222 8.05 6l2.348 2.444L14.814 6l-4.92 5.222z" />
  </symbol>
  <symbol viewBox="0 0 16 20" id="favorite" xmlns="http://www.w3.org/2000/svg">
    <path d="M1 3a2 2 0 012-2h10a2 2 0 012 2v16l-7-3.5L1 19V3z" />
  </symbol>
  <symbol viewBox="0 0 10 16" id="google" xmlns="http://www.w3.org/2000/svg">
    <path d="M7.366 8.708a12.48 12.48 0 01-1.1-.853c.084-.022.169-.035.252-.063a3.61 3.61 0 002.139-1.939c.445-1 .454-2.14.025-3.147A4.34 4.34 0 007.405 1H9a.5.5 0 000-1H5a.476.476 0 00-.081.016 3.836 3.836 0 00-1.441.192 3.61 3.61 0 00-2.14 1.939c-.445 1-.454 2.14-.025 3.147a4.358 4.358 0 003.813 2.691c.119.228.277.433.468.606C3.819 8.836 0 9.687 0 12.5 0 13.808.649 16 5 16c3.224 0 5-1.421 5-4 0-1.4-1.46-2.449-2.634-3.292zM2.239 4.916a2.947 2.947 0 01.01-2.355A2.619 2.619 0 013.8 1.153c.3-.102.614-.154.93-.153a3.342 3.342 0 013.03 2.084c.325.752.321 1.606-.01 2.355A2.619 2.619 0 016.2 6.847a3.254 3.254 0 01-3.961-1.931zM5 15c-2.654 0-4-.841-4-2.5 0-2.605 5.474-3 5.529-3a.489.489 0 00.169-.04l.084.061C7.771 10.229 9 11.113 9 12c0 1.99-1.346 3-4 3z" />
  </symbol>
  <symbol viewBox="0 0 17 11" id="infinity" xmlns="http://www.w3.org/2000/svg">
    <path d="M16.726 5.609c0 .841-.177 1.613-.531 2.316a4.07 4.07 0 01-1.486 1.643c-.636.399-1.353.598-2.15.598a3.68 3.68 0 01-2.141-.672C9.776 9.04 9.219 8.35 8.748 7.427c-.94 1.826-2.21 2.739-3.81 2.739a3.994 3.994 0 01-2.142-.59 4.077 4.077 0 01-1.485-1.643A5.142 5.142 0 01.78 5.601v-.175c0-.84.177-1.616.532-2.324.36-.708.855-1.259 1.485-1.652A3.896 3.896 0 014.922.853c1.616 0 2.892.904 3.827 2.714.935-1.81 2.21-2.714 3.827-2.714.785 0 1.494.199 2.125.597.63.393 1.123.941 1.477 1.644.36.697.543 1.463.548 2.3v.215zm-1.984-.183c0-.852-.202-1.552-.606-2.1-.404-.548-.943-.822-1.618-.822-.908 0-1.666.557-2.275 1.669-.221.41-.373.797-.456 1.162v.299c.083.382.251.808.506 1.278.592 1.08 1.328 1.619 2.208 1.619.67 0 1.21-.269 1.619-.805.415-.543.622-1.262.622-2.159v-.14zM2.764 5.61c0 .869.202 1.574.606 2.117.404.536.946.805 1.627.805.581 0 1.11-.246 1.586-.739.475-.498.832-1.146 1.07-1.942l.058-.216v-.299a4.623 4.623 0 00-.456-1.162C6.646 3.06 5.888 2.504 4.98 2.504c-.67 0-1.206.272-1.61.814-.404.537-.606 1.3-.606 2.29z" />
  </symbol>
  <symbol viewBox="0 0 20 20" id="info" xmlns="http://www.w3.org/2000/svg">
    <path d="M11 14h-1v-4H9l2 4zm-1-8h.01H10zm9 4a9 9 0 11-18 0 9 9 0 0118 0z" />
  </symbol>
  <symbol viewBox="0 0 21 21" id="instagram" xmlns="http://www.w3.org/2000/svg">
    <path d="M14.9 0H6.1A6.107 6.107 0 000 6.1v8.8C0 18.264 2.737 21 6.1 21h8.8c3.364 0 6.1-2.736 6.1-6.1V6.1C21 2.737 18.264 0 14.9 0zm4.46 14.9c0 2.459-2.001 4.46-4.46 4.46H6.1c-2.459 0-4.46-2.001-4.46-4.46V6.1c0-2.459 2.001-4.46 4.46-4.46h8.8c2.459 0 4.46 2.001 4.46 4.46v8.8z" />
    <path d="M10.5 4.84a5.667 5.667 0 00-5.66 5.66c0 3.121 2.539 5.66 5.66 5.66s5.66-2.539 5.66-5.66-2.539-5.66-5.66-5.66zm0 9.68a4.024 4.024 0 01-4.02-4.02 4.024 4.024 0 014.02-4.02 4.024 4.024 0 014.02 4.02 4.024 4.024 0 01-4.02 4.02zM16.242 5.578a.82.82 0 100-1.64.82.82 0 000 1.64z" />
  </symbol>
  <symbol viewBox="0 0 31 93" id="lightning" xmlns="http://www.w3.org/2000/svg">
    <path d="M29.97 38.898l-11.148 3.154L27.292 0 .893 53.623l11.477-3.267-8.46 42.237 26.58-53.842-.525.151.004-.004z" />
  </symbol>
  <symbol viewBox="0 0 16 13" id="like" xmlns="http://www.w3.org/2000/svg">
    <path d="M2.025 1.944c-.325.299-.583.654-.759 1.045a3.001 3.001 0 000 2.466c.176.39.434.746.76 1.045L8 12l5.975-5.5C14.63 5.896 15 5.076 15 4.222c0-.855-.369-1.674-1.025-2.278A3.66 3.66 0 0011.5 1a3.66 3.66 0 00-2.475.944L8 2.887l-1.025-.943c-.325-.3-.71-.537-1.136-.699a3.764 3.764 0 00-2.678 0c-.425.162-.81.4-1.136.699z" />
  </symbol>
  <symbol viewBox="0 0 16 17" id="linkendin" xmlns="http://www.w3.org/2000/svg">
    <path d="M1.982 0A1.981 1.981 0 000 1.98c0 1.095.887 2.001 1.98 2.001 1.094 0 1.982-.906 1.982-2A1.98 1.98 0 001.982 0zm9.67 5.25c-1.665 0-2.617.87-3.074 1.736H8.53V5.483H5.25V16.5h3.417v-5.454c0-1.437.109-2.825 1.887-2.825 1.753 0 1.778 1.638 1.778 2.916V16.5h3.418v-6.051c0-2.961-.637-5.199-4.099-5.199zm-11.38.233V16.5h3.42V5.483H.273z" />
  </symbol>
  <symbol viewBox="0 0 18 21" id="location" xmlns="http://www.w3.org/2000/svg">
    <path d="M14.657 14.657L10.414 18.9a1.998 1.998 0 01-2.827 0l-4.244-4.243a8 8 0 1111.314 0z" />
    <path d="M12 9a3 3 0 11-6 0 3 3 0 016 0z" />
  </symbol>
  <symbol viewBox="0 0 14 11" id="menu" xmlns="http://www.w3.org/2000/svg">
    <path d="M1 1h12M1 5.5h6M1 10h12" />
  </symbol>
  <symbol viewBox="0 0 23 17" id="nav-menu" xmlns="http://www.w3.org/2000/svg">
    <path d="M22.102 7.188H.898a.898.898 0 100 1.796h21.204a.898.898 0 100-1.796zM22.102 0H.898a.898.898 0 100 1.797h21.204a.898.898 0 100-1.797zM22.102 14.375H.898a.898.898 0 100 1.797h21.204a.898.898 0 000-1.797z" />
  </symbol>
  <symbol viewBox="0 0 23 16" id="no-visible" xmlns="http://www.w3.org/2000/svg">
    <path d="M14 5.61a.448.448 0 00-.625 0 .43.43 0 000 .613c.5.492.777 1.146.777 1.842 0 1.437-1.19 2.606-2.652 2.606-.71 0-1.375-.271-1.875-.764a.448.448 0 00-.625 0 .43.43 0 000 .614 3.54 3.54 0 002.5 1.018c1.95 0 3.535-1.558 3.535-3.473 0-.929-.367-1.802-1.036-2.457zM12.116 4.652c-.2-.035-.406-.06-.616-.06-1.95 0-3.536 1.558-3.536 3.473 0 .207.026.409.062.606a.44.44 0 00.512.351c.24-.041.4-.267.358-.502a2.476 2.476 0 01-.048-.455c0-1.436 1.19-2.605 2.652-2.605.159 0 .312.02.462.046a.44.44 0 00.512-.352.435.435 0 00-.358-.502z" />
    <path d="M22.002 7.785c-.1-.116-2.491-2.858-5.79-4.537a.446.446 0 00-.595.187.43.43 0 00.19.585c2.54 1.293 4.57 3.31 5.264 4.046-1.054 1.12-5.2 5.21-9.571 5.21-1.483 0-2.978-.351-4.445-1.046a.445.445 0 00-.59.202.43.43 0 00.207.58c1.586.752 3.211 1.133 4.828 1.133 5.446 0 10.298-5.562 10.503-5.799a.428.428 0 00-.001-.561zM14.4 2.486c-1.006-.332-1.982-.5-2.9-.5C6.054 1.986 1.2 7.548.997 7.785a.428.428 0 00-.025.529c.061.086 1.522 2.124 4.055 3.777a.44.44 0 00.612-.123.428.428 0 00-.124-.6 16.047 16.047 0 01-3.61-3.28C2.924 7.004 7.098 2.856 11.5 2.856c.823 0 1.704.153 2.618.454a.438.438 0 00.56-.273.432.432 0 00-.278-.55z" />
    <path d="M19.325.377a.448.448 0 00-.625 0L3.673 15.141a.43.43 0 000 .614.448.448 0 00.625 0L19.325.99a.43.43 0 000-.614z" />
  </symbol>
  <symbol viewBox="0 0 11 10" id="photo" xmlns="http://www.w3.org/2000/svg">
    <path d="M1 3.5a1 1 0 011-1h.465a1 1 0 00.832-.445l.406-.61A1 1 0 014.535 1h1.93a1 1 0 01.832.445l.406.61a1 1 0 00.832.445H9a1 1 0 011 1V8a1 1 0 01-1 1H2a1 1 0 01-1-1V3.5z" />
    <path d="M7 5.5a1.5 1.5 0 11-3 0 1.5 1.5 0 013 0z" />
  </symbol>
  <symbol viewBox="0 0 18 18" id="picture" xmlns="http://www.w3.org/2000/svg">
    <path d="M1 13l4.586-4.586a2 2 0 012.828 0L13 13m-2-2l1.586-1.586a2 2 0 012.828 0L17 11m-6-6h.01M3 17h12a2 2 0 002-2V3a2 2 0 00-2-2H3a2 2 0 00-2 2v12a2 2 0 002 2z" />
  </symbol>
  <symbol viewBox="0 0 20 20" id="plus" xmlns="http://www.w3.org/2000/svg">
    <path d="M10 7v3-3zm0 3v3-3zm0 0h3-3zm0 0H7h3zm9 0a9 9 0 11-18 0 9 9 0 0118 0z" />
  </symbol>
  <symbol viewBox="0 0 16 14" id="replay" xmlns="http://www.w3.org/2000/svg">
    <path d="M1 5.5h7.778c1.65 0 3.233.632 4.4 1.757A5.894 5.894 0 0115 11.5V13M1 5.5L5.667 10M1 5.5L5.667 1" />
  </symbol>
  <symbol viewBox="0 0 19 19" id="search" xmlns="http://www.w3.org/2000/svg">
    <path d="M8.367 0C3.753 0 0 3.754 0 8.367c0 4.614 3.753 8.367 8.367 8.367 4.613 0 8.367-3.753 8.367-8.367C16.734 3.754 12.98 0 8.367 0zm0 15.19a6.83 6.83 0 01-6.822-6.823 6.83 6.83 0 016.822-6.822 6.83 6.83 0 016.822 6.822 6.83 6.83 0 01-6.822 6.823z" />
    <path d="M18.774 17.682l-4.428-4.429a.772.772 0 10-1.092 1.093l4.428 4.428a.77.77 0 001.092 0 .772.772 0 000-1.092z" />
  </symbol>
  <symbol viewBox="0 0 16 20" id="soc500px" xmlns="http://www.w3.org/2000/svg">
    <path fill-rule="evenodd" clip-rule="evenodd" d="M15.38 16.624c-.142-.141-.263-.224-.369-.255a.269.269 0 00-.277.067l-.07.069a7.95 7.95 0 01-5.629 2.318 7.95 7.95 0 01-5.629-2.318c-.761-.757-1.335-1.603-1.706-2.515-.36-.89-.479-1.558-.518-1.778l-.008-.048c-.05-.26-.29-.277-.634-.225-.143.022-.579.088-.537.4v.007a9.055 9.055 0 002.565 4.992A9.13 9.13 0 009.035 20a9.133 9.133 0 006.54-2.739c.092-.1.173-.275-.194-.638zM9.024 2.143c-1.18 0-2.435.237-3.357.633a.262.262 0 00-.17.228c-.012.104.016.241.087.42.057.146.209.532.503.42a8.503 8.503 0 012.937-.555c1.077 0 2.12.21 3.104.623.781.329 1.518.803 2.32 1.493a.28.28 0 00.184.076c.156 0 .306-.152.434-.295.214-.239.36-.437.15-.636-.765-.72-1.604-1.259-2.639-1.694a9.118 9.118 0 00-3.553-.713zm-1.609 9.915c.002.132.124.249.197.318l.023.022c.125.122.244.184.353.184.091 0 .147-.043.167-.061.055-.05.678-.678.737-.738l.695.688a.292.292 0 00.216.11c.11 0 .231-.065.359-.194.3-.305.15-.469.077-.548l-.704-.7.734-.734c.161-.173.019-.357-.123-.498-.206-.205-.404-.258-.532-.141l-.73.727-.737-.734a.203.203 0 00-.143-.057c-.098 0-.214.066-.346.196-.226.226-.275.382-.157.506l.738.732-.734.73a.265.265 0 00-.09.192zM2.736 13.14c.005.012.109.299.17.44.33.78.806 1.48 1.41 2.081a6.576 6.576 0 004.657 1.917 6.579 6.579 0 004.657-1.917 6.52 6.52 0 001.41-7.178 6.52 6.52 0 00-1.41-2.08 6.578 6.578 0 00-4.657-1.917c-.9 0-1.798.177-2.599.514-.64.27-1.724.962-2.358 1.612l-.004.004V1.23h9.105c.33-.003.33-.463.33-.614 0-.151 0-.611-.331-.615H3.272a.431.431 0 00-.434.427V8.01c0 .245.306.422.591.482.556.118.685-.058.821-.245l.018-.025c.208-.307.858-.958.865-.964A5.377 5.377 0 018.95 5.694c1.442 0 2.794.556 3.808 1.564a5.29 5.29 0 011.579 3.775 5.286 5.286 0 01-1.57 3.775 5.466 5.466 0 01-3.832 1.563c-.972 0-1.91-.257-2.714-.744l.003-4.612c0-.614.269-1.283.718-1.787a2.638 2.638 0 011.995-.895c.748 0 1.446.282 1.967.795a2.66 2.66 0 01.801 1.909c0 1.54-1.219 2.748-2.775 2.748-.3 0-.845-.132-.867-.138-.315-.093-.448.341-.492.484-.17.55.085.659.138.675.5.154.829.184 1.26.184 2.196 0 3.983-1.778 3.983-3.963 0-2.167-1.786-3.93-3.981-3.93a4.041 4.041 0 00-2.844 1.15c-.722.707-1.137 1.649-1.137 2.585v.023c-.004.117-.006 2.88-.007 3.788l-.004-.005c-.413-.454-.82-1.15-1.091-1.86-.106-.28-.346-.23-.673-.13-.143.044-.577.177-.481.49l.001.003z" />
  </symbol>
  <symbol viewBox="0 0 18 16" id="telegram" xmlns="http://www.w3.org/2000/svg">
    <path d="M17.949 1.374l-2.717 12.81c-.204.904-.739 1.13-1.498.704l-4.14-3.05-1.996 1.92c-.221.221-.406.406-.832.406l.297-4.215 7.671-6.931c.334-.298-.072-.462-.518-.165L4.733 8.824.65 7.546c-.888-.277-.904-.888.185-1.314L16.804.08c.739-.277 1.386.165 1.145 1.294z" />
  </symbol>
  <symbol viewBox="0 0 17 13" id="twitter" xmlns="http://www.w3.org/2000/svg">
    <path d="M17 1.539a7.624 7.624 0 01-2.008.518A3.306 3.306 0 0016.525.244a7.235 7.235 0 01-2.21.794A3.598 3.598 0 0011.77 0C9.84 0 8.286 1.474 8.286 3.281c0 .26.024.51.081.748C5.47 3.896 2.906 2.589 1.184.598a3.156 3.156 0 00-.477 1.658c0 1.136.621 2.143 1.548 2.726A3.608 3.608 0 01.68 4.578v.036c0 1.594 1.208 2.918 2.792 3.223a3.684 3.684 0 01-.913.108c-.224 0-.449-.012-.66-.056.451 1.299 1.733 2.254 3.256 2.285a7.286 7.286 0 01-4.32 1.399c-.287 0-.56-.012-.835-.045A10.262 10.262 0 005.346 13c6.414 0 9.92-5 9.92-9.334 0-.145-.005-.285-.013-.424A6.744 6.744 0 0017 1.539z" />
  </symbol>
  <symbol viewBox="0 0 14 14" id="unslplash" xmlns="http://www.w3.org/2000/svg">
    <path fill-rule="evenodd" clip-rule="evenodd" d="M10 0H4v4h6V0zM4 6H0v8h14V6h-4v4H4V6z" />
  </symbol>
  <symbol viewBox="0 0 19 19" id="viber" xmlns="http://www.w3.org/2000/svg">
    <path d="M8.792 0c-1.425 0-4.95.15-6.825 1.95C.617 3.225.093 5.175.017 7.5c-.15 3.675.675 6 2.025 7.2.143.107.39.3.763.522.96.57 1.713 1.512 1.713 2.628 0 .01.002.51.25.771.11.115.266.204.425.204.45 0 .824-.526 1.349-1.05.14-.165.274-.314.398-.454.433-.487 1.05-.821 1.703-.821h.6c1.425 0 4.95-.15 6.825-1.95 1.108-1.108 1.66-2.622 1.823-4.498.073-.847.127-1.702.127-2.552-.076-2.775-.9-4.65-2.025-5.7-.45-.375-2.4-1.8-6.6-1.8h-.601zm-.15 1.425H9.319c3.975 0 5.475 1.276 5.625 1.426.9.75 1.425 2.4 1.5 4.574 0 .2.02.4.04.598.035.317.034.578.034.751-.075 2.25-.525 3.751-1.425 4.726-1.575 1.425-4.874 1.5-5.774 1.5H8.643a1.67 1.67 0 00-1.249.56l-.701.79-.672.74c-.052.057-.1.117-.143.182l-.063.093a.506.506 0 01-.052.065c-.11.116-.252.293-.375.406-.05.047-.12.008-.12-.062v-.716c0-1.474-1.208-2.516-2.25-3.558-1.05-.9-1.65-3.075-1.5-6v-.75c.15-1.8.6-3 1.35-3.825 1.575-1.425 4.875-1.5 5.775-1.5zm-.074 1.65a.264.264 0 000 .526c2.775 0 5.175 1.874 5.175 5.399 0 .375.524.375.524 0 0-3.825-2.55-6-5.7-5.925zm-2.972.694c-.336-.04-.638.196-.912.392-.422.303-.777.716-.863 1.178-.062.338.06.68.188.999.14.346.385.88.809 1.612.45.675.825 1.275 1.2 1.725.375.525.974 1.125 1.574 1.575 1.2.975 3.076 1.95 3.901 2.175.75.225 1.575-.526 1.95-1.276.3-.6-.457-1.148-.997-1.547a10.21 10.21 0 00-.953-.626c-.375-.225-.825-.076-.976.149l-.374.45c-.218.326-.723.186-1.083.03-1.377-.593-2.081-1.785-2.39-2.484-.157-.355-.251-.797.023-1.07l.45-.376c.225-.15.374-.6.149-.975-.058-.087-.126-.206-.201-.333-.236-.398-.64-.878-.938-1.232-.16-.189-.214-.279-.453-.345a.69.69 0 00-.104-.021zm4.374.915c-.575-.13-1.542.417-.952.417 1.745.124 2.87 1.13 3.156 2.5.12.573.594 1.46.594.875.065-1.829-.95-3.374-2.798-3.792zm.207 1.476c-.538-.228-1.444.364-.86.364.55 0 .93.195 1.144.551.312.518.806 1.48.806.875-.054-.875-.427-1.51-1.09-1.79z" />
  </symbol>
  <symbol viewBox="0 0 23 14" id="visible" xmlns="http://www.w3.org/2000/svg">
    <path d="M22.028 6.648C21.861 6.393 17.846.428 11.5.428 6.054.429 1.2 6.36.997 6.613a.482.482 0 000 .598c.204.253 5.057 6.183 10.503 6.183s10.299-5.93 10.503-6.183a.48.48 0 00.025-.562zM11.5 12.467c-4.366 0-8.517-4.362-9.572-5.556 1.053-1.196 5.2-5.556 9.572-5.556 5.108 0 8.714 4.355 9.594 5.53-1.017 1.157-5.191 5.582-9.594 5.582z" />
    <path d="M11.5 3.207c-1.95 0-3.536 1.661-3.536 3.704s1.586 3.704 3.536 3.704 3.535-1.661 3.535-3.704S13.45 3.207 11.5 3.207zm0 6.482c-1.462 0-2.652-1.246-2.652-2.778s1.19-2.778 2.652-2.778c1.462 0 2.652 1.246 2.652 2.778s-1.19 2.778-2.652 2.778z" />
  </symbol>
  <symbol viewBox="0 0 18 10" id="vk" xmlns="http://www.w3.org/2000/svg">
    <path fill-rule="evenodd" clip-rule="evenodd" d="M15.492 6.358c.597.573 1.227 1.111 1.762 1.741.237.28.46.569.632.894.243.462.023.97-.399.998l-2.622-.002c-.676.055-1.216-.212-1.67-.666-.363-.363-.699-.75-1.048-1.124a2.473 2.473 0 00-.472-.412c-.358-.228-.668-.159-.873.208-.208.373-.256.786-.276 1.201-.028.606-.215.766-.835.793-1.326.062-2.584-.135-3.752-.792-1.03-.578-1.83-1.395-2.525-2.32C2.06 5.076 1.023 3.097.09 1.062-.12.604.035.358.55.35 1.405.333 2.26.334 3.117.348c.348.005.578.2.712.523a15.534 15.534 0 001.74 3.166c.19.262.382.524.657.709.304.204.536.136.68-.196.09-.211.13-.438.15-.664.068-.777.077-1.553-.042-2.327-.073-.483-.35-.796-.841-.887C5.921.625 5.958.533 6.08.393 6.29.151 6.49 0 6.885 0h2.963c.467.09.57.296.634.757l.003 3.232c-.005.178.09.708.418.826.262.084.435-.122.592-.285.71-.74 1.216-1.613 1.668-2.518.201-.398.374-.81.541-1.224.124-.306.319-.457.67-.45l2.852.003c.085 0 .17 0 .252.014.481.08.613.284.464.745-.234.723-.689 1.325-1.134 1.93-.475.646-.984 1.27-1.456 1.92-.433.594-.399.893.14 1.408z" />
  </symbol>
  <symbol viewBox="0 0 18 19" id="whatsapp" xmlns="http://www.w3.org/2000/svg">
    <path fill-rule="evenodd" clip-rule="evenodd" d="M15.378 2.628A8.906 8.906 0 009.038 0C4.098 0 .076 4.02.076 8.959a8.912 8.912 0 001.195 4.48L0 18.081l4.752-1.248a8.97 8.97 0 004.283 1.093h.003c4.94 0 8.96-4.02 8.962-8.962a8.911 8.911 0 00-2.622-6.337zm-6.34 13.784h-.003a7.448 7.448 0 01-3.79-1.037l-.273-.161-2.822.738.753-2.748-.175-.281a7.428 7.428 0 01-1.14-3.964c0-4.105 3.343-7.444 7.453-7.444 1.99 0 3.858.776 5.265 2.182a7.407 7.407 0 012.18 5.268c0 4.107-3.343 7.447-7.448 7.447zm4.084-5.578c-.223-.111-1.324-.653-1.53-.727-.204-.076-.354-.11-.503.112-.15.225-.577.73-.71.879-.128.146-.26.167-.483.055-.225-.111-.946-.348-1.801-1.113-.665-.592-1.116-1.327-1.245-1.55-.132-.225-.015-.345.096-.457.103-.1.226-.26.337-.392.112-.13.15-.223.226-.372.073-.15.035-.282-.02-.393-.056-.111-.505-1.216-.692-1.664-.182-.437-.366-.375-.504-.384-.129-.006-.278-.006-.428-.006a.82.82 0 00-.597.282c-.205.222-.783.764-.783 1.866 0 1.101.803 2.168.914 2.317.112.147 1.58 2.408 3.827 3.378.533.232.949.37 1.274.472.536.17 1.025.146 1.412.09.43-.064 1.324-.542 1.512-1.066.184-.521.184-.97.129-1.063-.056-.094-.205-.15-.43-.264z" />
  </symbol>
  <symbol viewBox="0 0 20 18" id="write" xmlns="http://www.w3.org/2000/svg">
    <path d="M6 9h.01M10 9h.01M14 9h.01M19 9c0 4.418-4.03 8-9 8a9.863 9.863 0 01-4.255-.949L1 17l1.395-3.72C1.512 12.042 1 10.574 1 9c0-4.418 4.03-8 9-8s9 3.582 9 8z" />
  </symbol>
</svg>