<svg width="39" height="16" fill="none" xmlns="http://www.w3.org/2000/svg">
    <rect y=".543" width="39" height="15" rx="3" fill="#181818"/>
    <path d="M9.569 7.077l-1.28.327.973-4.362-3.03 5.562 1.317-.339-.97 4.382 3.05-5.585-.06.015z" fill="#FFD846"/>
    <path d="M15.638 9.289v2.254H14.32V5.145h2.496c.48 0 .902.087 1.265.263.367.176.648.426.844.752.196.322.294.69.294 1.103 0 .627-.215 1.122-.646 1.485-.427.36-1.02.54-1.78.54h-1.155zm0-1.068h1.178c.348 0 .614-.082.795-.246.185-.164.277-.399.277-.704 0-.313-.092-.566-.277-.76-.184-.193-.44-.293-.765-.299h-1.208v2.009zm6.86.98h-1.05v2.342h-1.319V5.145h2.378c.755 0 1.338.168 1.749.505.41.337.615.813.615 1.428 0 .437-.095.801-.286 1.094-.187.29-.473.522-.857.695l1.385 2.614v.062h-1.415l-1.2-2.342zm-1.05-1.068h1.063c.331 0 .587-.084.77-.25.18-.17.271-.404.271-.7 0-.301-.086-.538-.259-.711-.17-.173-.432-.26-.786-.26h-1.06v1.92zm9.685.356c0 .63-.111 1.182-.334 1.656a2.51 2.51 0 01-.958 1.1 2.632 2.632 0 01-1.424.386c-.53 0-1.003-.128-1.42-.383a2.542 2.542 0 01-.966-1.09c-.229-.474-.344-1.019-.347-1.634v-.316c0-.63.113-1.184.338-1.662.229-.48.55-.848.963-1.103.416-.257.89-.386 1.424-.386.533 0 1.006.129 1.419.386.416.255.737.623.962 1.103.229.478.343 1.03.343 1.657v.286zm-1.336-.29c0-.671-.12-1.18-.36-1.53-.24-.348-.583-.523-1.029-.523-.442 0-.783.173-1.023.519-.24.343-.362.847-.365 1.512v.312c0 .653.12 1.16.36 1.52.24.36.586.54 1.037.54.443 0 .782-.172 1.02-.518.237-.348.357-.855.36-1.52v-.312z" fill="#fff"/>
</svg>
